<?xml version="1.0" encoding="UTF-8" standalone="no"?>
<svg width="36px" height="36px" viewBox="0 0 36 36" version="1.1" xmlns="http://www.w3.org/2000/svg" xmlns:xlink="http://www.w3.org/1999/xlink" xmlns:sketch="http://www.bohemiancoding.com/sketch/ns">
    <!-- Generator: Sketch 3.2.2 (9983) - http://www.bohemiancoding.com/sketch -->
    <title>Slice 1</title>
    <desc>Created with Sketch.</desc>
    <defs></defs>
    <g id="Page-1" stroke="none" stroke-width="1" fill="none" fill-rule="evenodd" sketch:type="MSPage">
        <g id="github" sketch:type="MSLayerGroup" fill="#FFFFFF">
            <path d="M18.008,35.016 C27.402,35.016 35.016,27.4 35.016,18.007 C35.016,8.615 27.402,1 18.008,1 C8.613,1 1,8.615 1,18.007 C1,27.4 8.613,35.016 18.008,35.016 Z M24.859612,14.0842716 C24.0995797,12.8278247 23.0685439,11.8330993 21.7663689,11.0998334 C20.4639221,10.3665674 19.0420709,10 17.4998642,10 C15.9577933,10 14.5355345,10.3666985 13.2333594,11.0998334 C11.9310485,11.8330993 10.9000128,12.8278247 10.1399805,14.0842716 C9.37994822,15.3407186 9,16.7127581 9,18.2003902 C9,19.9872263 9.54037684,21.5941206 10.6214022,23.0213353 C11.7022917,24.44855 13.0986048,25.4361983 14.8103415,25.9842802 C15.0096208,26.0199278 15.1571445,25.9948958 15.2530484,25.9097085 C15.3489524,25.8242591 15.3969044,25.7174474 15.3969044,25.5894044 C15.3969044,25.568042 15.3950026,25.3759119 15.3913349,25.012883 C15.3875314,24.6497231 15.3857654,24.3329574 15.3857654,24.0627171 L15.1311988,24.1051797 C14.9688684,24.1338813 14.7641555,24.1460696 14.5169242,24.1425311 C14.2698288,24.1392546 14.0133604,24.1142227 13.7477906,24.0678284 C13.4820849,24.0216962 13.2349895,23.9150155 13.0062327,23.7477863 C12.7776117,23.580426 12.6152813,23.3614292 12.5193774,23.0910578 L12.4086667,22.8453253 C12.3349048,22.6817657 12.2187605,22.5001202 12.0600978,22.300913 C11.9014351,22.1015748 11.7410065,21.9663236 11.5786761,21.8951594 L11.5012465,21.8418191 C11.4496268,21.8061715 11.4016748,21.7633157 11.3573906,21.7135139 C11.3131063,21.6637121 11.279961,21.6139103 11.2578189,21.5639775 C11.2356767,21.5141757 11.2540153,21.4731547 11.3131063,21.4410456 C11.3721973,21.4089366 11.4791044,21.3932097 11.6340994,21.3932097 L11.8553849,21.4251877 C12.0029086,21.4536272 12.1854794,21.5389455 12.403233,21.6814049 C12.6208508,21.8237331 12.7997539,22.0087861 12.9399421,22.2364328 C13.1097438,22.5284286 13.3143209,22.7508329 13.5542167,22.9039079 C13.7939766,23.0569829 14.0356384,23.1333894 14.279066,23.1333894 C14.5224937,23.1333894 14.7327761,23.1155656 14.9099132,23.080049 C15.0869145,23.0445325 15.2529126,22.9910611 15.4079076,22.9198969 C15.474334,22.4428481 15.6551388,22.0762807 15.9501862,21.8200635 C15.5296214,21.7773388 15.151575,21.7131207 14.8157752,21.6278024 C14.4801112,21.542353 14.1333083,21.4035632 13.7755022,21.211171 C13.4175603,21.0190409 13.1206111,20.7805165 12.8845189,20.4958599 C12.6484266,20.2110723 12.4547169,19.8372967 12.3035255,19.3746642 C12.1523341,18.9119007 12.0766704,18.378104 12.0766704,17.7730122 C12.0766704,16.9115721 12.368186,16.1784372 12.9510811,15.5733454 C12.67804,14.9256599 12.7038499,14.1996021 13.0285107,13.395172 C13.2424608,13.331085 13.5597862,13.379183 13.9803509,13.5393351 C14.4009157,13.6994872 14.708868,13.8367043 14.9044796,13.9504621 C15.1000911,14.0642199 15.256852,14.160547 15.3748981,14.2387883 C16.0611686,14.0537353 16.7694453,13.9612088 17.4998642,13.9612088 C18.230283,13.9612088 18.9386956,14.0537353 19.6251019,14.2387883 L20.0456667,13.9825711 C20.3332428,13.8116723 20.6728461,13.6550588 21.0636616,13.5127305 C21.4547489,13.3704022 21.7537356,13.331216 21.9603503,13.3953031 C22.2923465,14.1997332 22.3218241,14.925791 22.048783,15.5734765 C22.6316782,16.1785683 22.9231937,16.9118342 22.9231937,17.7731432 C22.9231937,18.3782351 22.8473942,18.9137355 22.6963387,19.3800376 C22.5450114,19.8464707 22.3496716,20.2199842 22.1099116,20.5012333 C21.8700158,20.7824824 21.5711649,21.019172 21.2133588,21.2113021 C20.8554169,21.4035632 20.5086139,21.542353 20.17295,21.6278024 C19.8371502,21.7132518 19.4591038,21.7774699 19.038539,21.8201946 C19.4221549,22.1404988 19.6139629,22.645856 19.6139629,23.3363972 L19.6139629,25.5891422 C19.6139629,25.7171853 19.6601489,25.823997 19.7523852,25.9093154 C19.8446215,25.9946337 19.9902434,26.0196657 20.1895226,25.9840181 C21.9013952,25.4359362 23.2977083,24.4482879 24.3785978,23.0209422 C25.4594873,21.5938585 26,19.9869642 26,18.1999971 C25.9995925,16.7126271 25.6193726,15.3407186 24.859612,14.0842716 Z" id="Fill-196" sketch:type="MSShapeGroup"></path>
        </g>
    </g>
</svg>