<?xml version="1.0" encoding="UTF-8" standalone="no"?>
<svg width="35px" height="35px" viewBox="0 0 35 35" version="1.1" xmlns="http://www.w3.org/2000/svg" xmlns:xlink="http://www.w3.org/1999/xlink" xmlns:sketch="http://www.bohemiancoding.com/sketch/ns">
    <!-- Generator: Sketch 3.0.4 (8054) - http://www.bohemiancoding.com/sketch -->
    <title>behance</title>
    <desc>Created with Sketch.</desc>
    <defs></defs>
    <g id="Page-1" stroke="none" stroke-width="1" fill="none" fill-rule="evenodd" sketch:type="MSPage">
        <g id="Flat_Social_Icons" sketch:type="MSLayerGroup" transform="translate(-528.000000, -119.000000)">
            <g id="Group-20"></g>
            <g id="behance" transform="translate(529.000000, 119.000000)" sketch:type="MSShapeGroup">
                <path d="M16.748,34.085 C26.141,34.085 33.755,26.47 33.755,17.077 C33.755,7.684 26.141,0.07 16.748,0.07 C7.354,0.07 -0.26,7.684 -0.26,17.077 C-0.26,26.47 7.354,34.085 16.748,34.085" id="Fill-182" fill="#FFFFFF"></path>
                <path d="M19.112,13.488 L23.616,13.488 L23.616,12.18 L19.112,12.18 L19.112,13.488 Z M20.179,16.342 C19.892,16.638 19.711,17.039 19.637,17.545 L23.14,17.545 C23.103,17.005 22.921,16.597 22.599,16.316 C22.273,16.037 21.872,15.898 21.392,15.898 C20.872,15.898 20.466,16.046 20.179,16.342 L20.179,16.342 Z M23.219,14.586 C23.762,14.828 24.209,15.212 24.561,15.736 C24.882,16.198 25.088,16.734 25.182,17.343 C25.237,17.699 25.259,18.215 25.25,18.886 L19.587,18.886 C19.621,19.665 19.889,20.212 20.401,20.525 C20.711,20.72 21.084,20.818 21.522,20.818 C21.983,20.818 22.36,20.699 22.649,20.462 C22.808,20.333 22.948,20.155 23.068,19.927 L25.143,19.927 C25.088,20.387 24.836,20.856 24.39,21.332 C23.694,22.087 22.719,22.465 21.466,22.465 C20.431,22.465 19.518,22.147 18.729,21.509 C17.936,20.872 17.542,19.834 17.542,18.398 C17.542,17.051 17.899,16.018 18.612,15.299 C19.327,14.582 20.252,14.221 21.391,14.221 C22.068,14.221 22.677,14.343 23.219,14.586 L23.219,14.586 Z M10.339,17.573 L10.339,20.376 L12.891,20.376 C13.347,20.376 13.703,20.314 13.956,20.191 C14.417,19.961 14.647,19.525 14.647,18.879 C14.647,18.331 14.425,17.956 13.978,17.751 C13.728,17.637 13.377,17.577 12.927,17.573 L10.339,17.573 L10.339,17.573 Z M10.339,13.515 L10.339,15.834 L12.895,15.834 C13.35,15.834 13.721,15.747 14.007,15.573 C14.291,15.399 14.434,15.091 14.434,14.651 C14.434,14.16 14.246,13.837 13.87,13.679 C13.544,13.57 13.13,13.515 12.627,13.515 L10.339,13.515 L10.339,13.515 Z M16.047,12.81 C16.368,13.257 16.529,13.791 16.529,14.414 C16.529,15.055 16.368,15.572 16.043,15.962 C15.861,16.18 15.594,16.38 15.241,16.56 C15.777,16.756 16.181,17.065 16.456,17.488 C16.728,17.91 16.865,18.424 16.865,19.028 C16.865,19.651 16.709,20.21 16.396,20.704 C16.198,21.031 15.95,21.307 15.652,21.531 C15.317,21.788 14.922,21.963 14.465,22.059 C14.008,22.154 13.514,22.2 12.98,22.2 L8.244,22.2 L8.244,11.69 L13.323,11.69 C14.605,11.709 15.512,12.082 16.047,12.81 L16.047,12.81 Z" id="Fill-183" fill="#2E2E33"></path>
            </g>
        </g>
    </g>
</svg>