<?xml version="1.0" encoding="UTF-8" standalone="no"?>
<svg width="128px" height="128px" viewBox="0 0 128 128" version="1.1" xmlns="http://www.w3.org/2000/svg" xmlns:xlink="http://www.w3.org/1999/xlink" xmlns:sketch="http://www.bohemiancoding.com/sketch/ns">
    <!-- Generator: Sketch 3.0.4 (8054) - http://www.bohemiancoding.com/sketch -->
    <title>design-icon</title>
    <desc>Created with Sketch.</desc>
    <defs></defs>
    <g id="Page-1" stroke="none" stroke-width="1" fill="none" fill-rule="evenodd" sketch:type="MSPage">
        <g id="design-icon" sketch:type="MSLayerGroup" transform="translate(1.000000, 0.000000)" fill="#878C94">
            <path d="M90.396,64.206 L109.755,44.886 C110.167,44.475 110.468,43.981 110.667,43.446 C110.671,43.438 110.675,43.431 110.679,43.423 L126.431,5.785 C127.058,4.288 126.717,2.56 125.569,1.413 C124.804,0.647 123.782,0.241 122.741,0.241 C122.22,0.241 121.696,0.342 121.198,0.551 L83.559,16.304 C83.35,16.391 83.156,16.5 82.967,16.619 C82.661,16.793 82.366,16.994 82.104,17.255 L62.852,36.468 L28.807,2.182 C28.058,1.427 27.038,1.002 25.974,1 L25.969,1 C24.907,1 23.889,1.422 23.138,2.174 L1.17,24.174 C-0.387,25.732 -0.39,28.256 1.162,29.819 L35.183,64.08 L13.089,86.13 C12.978,86.241 12.889,86.368 12.793,86.49 C12.675,86.584 12.551,86.667 12.442,86.776 L3.681,95.538 C-1.677,100.895 -1.677,109.614 3.681,114.972 L11.957,123.249 C14.553,125.845 18.004,127.273 21.675,127.273 C25.345,127.273 28.796,125.844 31.392,123.249 L40.153,114.488 C40.368,114.272 40.546,114.038 40.702,113.792 C40.714,113.78 40.728,113.772 40.74,113.761 L62.727,91.819 L96.503,125.835 C97.252,126.59 98.272,127.015 99.335,127.016 L99.341,127.016 C100.403,127.016 101.421,126.594 102.171,125.843 L126.955,101.024 L90.396,64.206 L90.396,64.206 Z M108.089,103.344 C107.308,102.563 106.042,102.563 105.261,103.344 L92.49,116.115 L89.547,113.15 L96.225,106.472 C97.006,105.691 97.006,104.425 96.225,103.644 C95.444,102.863 94.178,102.863 93.397,103.644 L86.729,110.312 L83.786,107.348 L90.444,100.691 C91.225,99.911 91.225,98.644 90.444,97.863 C89.663,97.082 88.397,97.082 87.616,97.863 L80.968,104.51 L78.025,101.546 L84.663,94.908 C85.444,94.127 85.444,92.86 84.663,92.08 C83.882,91.299 82.616,91.299 81.835,92.08 L75.208,98.708 L72.265,95.743 L84.964,83.043 C85.745,82.262 85.745,80.996 84.964,80.215 C84.183,79.434 82.917,79.434 82.136,80.215 L69.446,92.905 L65.561,88.992 L87.567,67.031 L121.313,101.013 L99.344,123.013 L95.311,118.951 L108.092,106.17 C108.87,105.391 108.87,104.125 108.089,103.344 L108.089,103.344 Z M14.786,120.421 L6.509,112.144 C2.705,108.339 2.705,102.171 6.509,98.367 L13.086,91.79 C13.087,91.791 13.087,91.792 13.088,91.793 L35.088,113.761 C35.111,113.784 35.139,113.8 35.163,113.822 L28.564,120.423 C26.661,122.325 24.168,123.276 21.675,123.276 C19.181,123.273 16.688,122.323 14.786,120.421 L14.786,120.421 Z M46.37,41.625 C45.589,40.844 44.323,40.844 43.542,41.625 L30.988,54.179 L28.045,51.215 L34.505,44.754 C35.286,43.973 35.286,42.707 34.505,41.926 C33.724,41.145 32.458,41.145 31.677,41.926 L25.226,48.376 L22.283,45.413 L28.724,38.973 C29.505,38.193 29.505,36.926 28.724,36.145 C27.943,35.363 26.677,35.363 25.896,36.145 L19.465,42.574 L16.522,39.61 L22.942,33.191 C23.723,32.409 23.723,31.144 22.942,30.362 C22.16,29.581 20.895,29.581 20.113,30.362 L13.704,36.772 L10.76,33.808 L23.242,21.325 C24.024,20.544 24.024,19.278 23.242,18.497 C22.461,17.716 21.195,17.716 20.414,18.497 L7.942,30.97 L4,27 L25.969,5 L60.021,39.293 L38.014,61.255 L33.806,57.017 L46.37,44.453 C47.152,43.672 47.152,42.406 46.37,41.625 L46.37,41.625 Z M84.93,20.086 L87.783,22.934 L87.783,22.935 L18.803,91.846 L15.914,88.961 L84.93,20.086 L84.93,20.086 Z M106.868,10.884 L113.231,26.961 L108.587,38.058 L88.905,18.402 L106.868,10.884 L106.868,10.884 Z M21.634,94.672 L90.609,25.765 L95.895,31.035 L101.21,36.343 L32.235,105.251 L21.634,94.672 L21.634,94.672 Z M37.914,110.93 L35.062,108.081 L104.041,39.17 L106.93,42.055 L37.914,110.93 L37.914,110.93 Z M122.741,4.241 L115.442,21.679 L110.559,9.34 L122.741,4.241 L122.741,4.241 Z" id="Shape" sketch:type="MSShapeGroup"></path>
        </g>
    </g>
</svg>