<?xml version="1.0" encoding="UTF-8" standalone="no"?>
<svg width="128px" height="128px" viewBox="0 0 128 128" version="1.1" xmlns="http://www.w3.org/2000/svg" xmlns:xlink="http://www.w3.org/1999/xlink" xmlns:sketch="http://www.bohemiancoding.com/sketch/ns">
    <!-- Generator: Sketch 3.0.4 (8054) - http://www.bohemiancoding.com/sketch -->
    <title>development-icon</title>
    <desc>Created with Sketch.</desc>
    <defs></defs>
    <g id="Page-1" stroke="none" stroke-width="1" fill="none" fill-rule="evenodd" sketch:type="MSPage">
        <g id="development-icon" sketch:type="MSLayerGroup" fill="#878C94">
            <g id="Group" sketch:type="MSShapeGroup">
                <path d="M0.993,92.164 C0.159,92.915 -0.187,94.069 0.098,95.155 C1.152,99.181 2.748,103.047 4.841,106.644 C5.38,107.57 6.387,108.136 7.435,108.136 C7.485,108.136 7.535,108.135 7.585,108.132 L18.472,107.589 C19.076,108.242 19.702,108.872 20.348,109.474 L19.78,120.353 C19.721,121.475 20.294,122.535 21.263,123.102 C23.095,124.173 24.971,125.109 26.836,125.884 C28.699,126.658 30.684,127.327 32.738,127.87 C32.994,127.938 33.252,127.972 33.508,127.972 C34.345,127.972 35.156,127.621 35.734,126.984 L43.043,118.906 C43.487,118.924 43.93,118.932 44.372,118.932 C44.815,118.932 45.259,118.923 45.703,118.907 L52.998,127.008 C53.576,127.648 54.391,128.001 55.229,128.001 C55.482,128.001 55.738,127.968 55.989,127.901 C60.017,126.846 63.882,125.252 67.478,123.159 C68.448,122.595 69.022,121.536 68.966,120.415 L68.423,109.527 C69.075,108.924 69.705,108.298 70.308,107.651 L81.188,108.219 C81.236,108.222 81.285,108.223 81.334,108.223 C82.374,108.223 83.396,107.662 83.938,106.735 C85.01,104.9 85.945,103.024 86.718,101.164 C87.494,99.298 88.163,97.31 88.706,95.259 C88.993,94.174 88.65,93.019 87.817,92.266 L79.741,84.954 C79.774,84.071 79.774,83.183 79.741,82.296 L87.842,75.001 C88.676,74.249 89.021,73.095 88.737,72.009 C87.681,67.984 86.086,64.118 83.994,60.522 C83.454,59.595 82.45,59.029 81.399,59.029 C81.349,59.029 81.299,59.03 81.249,59.033 L70.362,59.576 C69.758,58.922 69.133,58.293 68.486,57.691 L69.055,46.812 C69.113,45.69 68.54,44.629 67.57,44.063 C65.737,42.991 63.862,42.055 61.998,41.28 C60.132,40.505 58.146,39.836 56.094,39.294 C55.84,39.226 55.582,39.194 55.327,39.194 C54.49,39.194 53.678,39.544 53.1,40.181 L45.79,48.259 C45.348,48.241 44.906,48.233 44.463,48.233 C44.02,48.233 43.576,48.241 43.13,48.258 L35.835,40.158 C35.258,39.517 34.441,39.166 33.603,39.166 C33.35,39.166 33.095,39.198 32.844,39.263 C28.82,40.317 24.955,41.913 21.356,44.006 C20.386,44.57 19.812,45.629 19.868,46.75 L20.411,57.638 C19.758,58.24 19.129,58.867 18.526,59.515 L7.646,58.945 C7.599,58.943 7.553,58.942 7.507,58.942 C6.451,58.942 5.442,59.498 4.898,60.428 C3.826,62.261 2.889,64.137 2.115,66.002 C1.34,67.866 0.671,69.854 0.128,71.903 C-0.16,72.99 0.183,74.146 1.016,74.9 L9.094,82.21 C9.061,83.092 9.061,83.981 9.094,84.869 L0.993,92.164 L0.993,92.164 Z M13.09,82.36 C13.135,81.178 12.654,80.037 11.777,79.243 L4.153,72.346 C4.62,70.675 5.176,69.06 5.808,67.537 C6.441,66.014 7.194,64.479 8.049,62.972 L18.316,63.509 C18.386,63.513 18.456,63.515 18.525,63.515 C19.632,63.515 20.693,63.055 21.452,62.241 C21.986,61.667 22.548,61.107 23.123,60.577 C23.994,59.773 24.464,58.623 24.405,57.438 L23.892,47.163 C26.851,45.498 30.001,44.198 33.272,43.29 L40.157,50.935 C40.917,51.779 41.998,52.258 43.129,52.258 C43.179,52.258 43.23,52.257 43.28,52.255 C43.676,52.24 44.069,52.233 44.462,52.233 C44.853,52.233 45.243,52.24 45.632,52.256 C45.685,52.258 45.737,52.259 45.789,52.259 C46.917,52.259 47.995,51.782 48.755,50.943 L55.654,43.319 C57.323,43.785 58.938,44.341 60.461,44.974 C61.984,45.607 63.517,46.359 65.027,47.215 L64.49,57.481 C64.429,58.662 64.893,59.81 65.759,60.616 C66.329,61.148 66.89,61.711 67.424,62.289 C68.183,63.111 69.248,63.575 70.362,63.575 C70.428,63.575 70.495,63.573 70.562,63.57 L80.836,63.057 C82.501,66.017 83.802,69.167 84.709,72.437 L77.064,79.323 C76.183,80.116 75.699,81.26 75.743,82.444 C75.773,83.229 75.773,84.023 75.743,84.804 C75.699,85.986 76.181,87.126 77.056,87.92 L84.68,94.819 C84.214,96.487 83.658,98.102 83.023,99.629 C82.391,101.15 81.639,102.684 80.785,104.192 L70.516,103.655 C70.446,103.651 70.376,103.65 70.307,103.65 C69.2,103.65 68.139,104.109 67.38,104.924 C66.848,105.494 66.285,106.055 65.707,106.589 C64.838,107.393 64.368,108.542 64.428,109.725 L64.94,120.002 C61.984,121.664 58.834,122.965 55.56,123.872 L48.675,116.228 C47.915,115.384 46.835,114.905 45.703,114.905 C45.655,114.905 45.605,114.906 45.556,114.908 C45.161,114.923 44.766,114.93 44.372,114.93 C43.98,114.93 43.588,114.922 43.195,114.907 C43.144,114.905 43.094,114.904 43.043,114.904 C41.915,114.904 40.837,115.382 40.077,116.22 L33.179,123.844 C31.509,123.378 29.894,122.822 28.371,122.189 C26.848,121.556 25.315,120.803 23.806,119.949 L24.343,109.681 C24.405,108.499 23.94,107.351 23.074,106.545 C22.507,106.017 21.947,105.453 21.41,104.873 C20.651,104.051 19.585,103.587 18.472,103.587 C18.406,103.587 18.339,103.589 18.273,103.592 L7.998,104.105 C6.333,101.146 5.032,97.996 4.125,94.725 L11.77,87.839 C12.651,87.046 13.134,85.901 13.09,84.717 C13.062,83.934 13.062,83.14 13.09,82.36 L13.09,82.36 Z" id="Shape"></path>
                <path d="M67.648,37 L74.613,39.436 C74.825,40 75.057,40.554 75.308,41.096 L72.178,47.771 C71.855,48.46 71.944,49.271 72.407,49.873 C73.283,51.011 74.22,52.077 75.192,53.038 C76.162,53.999 77.236,54.924 78.385,55.789 C78.744,56.059 79.175,56.198 79.608,56.198 C79.908,56.198 80.209,56.131 80.49,55.996 L87.133,52.796 C87.681,53.043 88.235,53.268 88.8,53.474 L91.309,60.412 C91.508,60.961 91.929,61.39 92.454,61.604 C92.613,61.668 92.782,61.713 92.956,61.736 C94.299,61.913 95.65,62 97.001,62 C98.46,62 99.919,61.897 101.367,61.692 C102.119,61.585 102.749,61.068 103,60.351 L105.437,53.387 C105.999,53.175 106.554,52.942 107.096,52.691 L113.773,55.821 C114.041,55.947 114.335,56.009 114.63,56.009 C115.07,56.009 115.513,55.87 115.874,55.592 C117.015,54.714 118.078,53.777 119.037,52.808 C120,51.835 120.928,50.76 121.79,49.612 C122.247,49.005 122.326,48.193 121.996,47.509 L118.797,40.867 C119.042,40.321 119.27,39.764 119.475,39.199 L126.413,36.691 C127.128,36.433 127.639,35.797 127.737,35.044 C128.101,32.251 128.086,29.421 127.693,26.632 C127.585,25.879 127.058,25.245 126.351,24.999 L119.387,22.564 C119.175,22 118.943,21.446 118.691,20.904 L121.822,14.228 C122.145,13.539 122.056,12.728 121.593,12.126 C120.717,10.987 119.78,9.922 118.809,8.961 C117.835,7.999 116.762,7.073 115.614,6.21 C115.256,5.94 114.825,5.802 114.392,5.802 C114.092,5.802 113.79,5.868 113.51,6.003 L106.867,9.203 C106.321,8.956 105.767,8.731 105.199,8.525 L102.691,1.587 C102.433,0.872 101.794,0.361 101.044,0.263 C99.702,0.087 98.353,0 97.001,0 C95.541,0 94.081,0.102 92.633,0.307 C91.881,0.413 91.25,0.931 90.999,1.648 L88.564,8.613 C88.001,8.824 87.447,9.056 86.904,9.309 L80.228,6.178 C79.955,6.052 79.661,5.99 79.367,5.99 C78.928,5.99 78.488,6.13 78.127,6.407 C76.987,7.284 75.923,8.221 74.961,9.192 C73.999,10.164 73.074,11.239 72.21,12.386 C71.753,12.993 71.673,13.805 72.003,14.49 L75.203,21.133 C74.958,21.677 74.731,22.234 74.525,22.8 L67.587,25.309 C66.872,25.567 66.36,26.202 66.263,26.955 C65.898,29.748 65.911,32.579 66.307,35.368 C66.414,36.121 66.943,36.756 67.648,37 M70.102,28.653 L75.886,26.562 C77,26.159 77.88,25.282 78.284,24.168 C78.455,23.697 78.646,23.229 78.849,22.778 C79.335,21.7 79.32,20.462 78.807,19.396 L76.139,13.859 C76.676,13.203 77.234,12.583 77.804,12.006 C78.374,11.428 78.99,10.864 79.64,10.32 L85.204,12.93 C85.742,13.182 86.322,13.309 86.903,13.309 C87.478,13.309 88.053,13.185 88.588,12.937 C89.039,12.727 89.505,12.532 89.97,12.357 C91.079,11.941 91.948,11.053 92.34,9.933 L94.369,4.127 C95.245,4.042 96.126,4 97.001,4 C97.781,4 98.566,4.034 99.348,4.101 L101.439,9.885 C101.842,11 102.72,11.879 103.834,12.284 C104.315,12.459 104.768,12.643 105.218,12.847 C105.742,13.085 106.306,13.203 106.868,13.203 C107.462,13.203 108.056,13.071 108.604,12.807 L114.142,10.139 C114.797,10.675 115.417,11.233 115.995,11.804 C116.572,12.375 117.137,12.989 117.681,13.64 L115.072,19.205 C114.569,20.276 114.567,21.514 115.065,22.587 C115.273,23.037 115.468,23.502 115.645,23.971 C116.062,25.081 116.95,25.948 118.069,26.34 L123.874,28.37 C124.035,30.024 124.044,31.691 123.9,33.346 L118.116,35.437 C117.001,35.84 116.123,36.718 115.718,37.832 C115.547,38.301 115.357,38.769 115.153,39.221 C114.667,40.299 114.682,41.537 115.196,42.602 L117.864,48.141 C117.327,48.796 116.769,49.416 116.197,49.994 C115.626,50.571 115.012,51.135 114.362,51.679 L108.797,49.069 C108.26,48.817 107.68,48.691 107.099,48.691 C106.524,48.691 105.949,48.815 105.414,49.063 C104.964,49.272 104.498,49.467 104.03,49.643 C102.921,50.06 102.054,50.948 101.663,52.066 L99.633,57.872 C98.757,57.958 97.876,58 97.001,58 C96.221,58 95.435,57.965 94.652,57.898 L92.561,52.114 C92.158,51 91.282,50.122 90.168,49.716 C89.688,49.541 89.232,49.356 88.777,49.15 C88.255,48.914 87.692,48.796 87.131,48.796 C86.536,48.796 85.943,48.928 85.395,49.192 L79.857,51.861 C79.202,51.324 78.581,50.766 78.004,50.195 C77.427,49.624 76.862,49.009 76.318,48.36 L78.928,42.794 C79.43,41.723 79.433,40.484 78.934,39.411 C78.727,38.965 78.532,38.499 78.355,38.028 C77.938,36.919 77.05,36.051 75.931,35.66 L70.124,33.63 C69.967,31.976 69.957,30.31 70.102,28.653" id="Shape"></path>
                <path d="M44,108 C57.255,108 68,97.255 68,84 C68,70.745 57.255,60 44,60 C30.745,60 20,70.745 20,84 C20,97.255 30.745,108 44,108 M44,64 C55.028,64 64,72.972 64,84 C64,95.028 55.028,104 44,104 C32.972,104 24,95.028 24,84 C24,72.972 32.972,64 44,64" id="Shape"></path>
                <path d="M44,95.938 C50.593,95.938 55.938,90.593 55.938,84 C55.938,77.408 50.593,72.063 44,72.063 C37.407,72.063 32.062,77.408 32.062,84 C32.062,90.593 37.407,95.938 44,95.938 M44,76.062 C48.377,76.062 51.937,79.623 51.937,83.999 C51.937,88.377 48.377,91.937 44,91.937 C39.623,91.937 36.063,88.376 36.063,83.999 C36.063,79.623 39.623,76.062 44,76.062" id="Shape"></path>
                <path d="M97,44 C104.18,44 110,38.18 110,31 C110,23.82 104.18,18 97,18 C89.82,18 84,23.82 84,31 C84,38.18 89.82,44 97,44 M97,22 C101.963,22 106,26.037 106,31 C106,35.963 101.963,40 97,40 C92.037,40 88,35.963 88,31 C88,26.037 92.037,22 97,22" id="Shape"></path>
                <path d="M97,33 C98.105,33 99,32.105 99,31 C99,29.895 98.105,29 97,29 C95.895,29 95,29.895 95,31 C95,32.105 95.895,33 97,33" id="Shape"></path>
            </g>
        </g>
    </g>
</svg>