<?xml version="1.0" encoding="UTF-8" standalone="no"?>
<svg width="35px" height="35px" viewBox="0 0 35 35" version="1.1" xmlns="http://www.w3.org/2000/svg" xmlns:xlink="http://www.w3.org/1999/xlink" xmlns:sketch="http://www.bohemiancoding.com/sketch/ns">
    <!-- Generator: Sketch 3.0.4 (8054) - http://www.bohemiancoding.com/sketch -->
    <title>dribbble-light</title>
    <desc>Created with Sketch.</desc>
    <defs></defs>
    <g id="Page-1" stroke="none" stroke-width="1" fill="none" fill-rule="evenodd" sketch:type="MSPage">
        <g id="Flat_Social_Icons" sketch:type="MSLayerGroup" transform="translate(-46.000000, -86.000000)">
            <g id="Group-20"></g>
            <g id="dribbble" transform="translate(47.000000, 86.000000)" sketch:type="MSShapeGroup">
                <path d="M16.606,34.109 C26,34.109 33.614,26.493 33.614,17.1 C33.614,7.708 26,0.093 16.606,0.093 C7.211,0.093 -0.402,7.708 -0.402,17.1 C-0.402,26.493 7.211,34.109 16.606,34.109" id="Fill-196" fill="#CCD0D1"></path>
                <path d="M20.664,23.124 C20.59,22.686 20.203,20.554 19.25,17.937 C21.595,17.562 23.626,18.205 23.776,18.254 C23.453,20.278 22.294,22.023 20.664,23.124 L20.664,23.124 Z M16.606,24.364 C14.848,24.364 13.236,23.739 11.979,22.699 C12.075,22.777 12.142,22.826 12.142,22.826 C12.142,22.826 13.534,19.79 17.841,18.289 C17.857,18.283 17.874,18.279 17.89,18.274 C18.912,20.929 19.333,23.153 19.441,23.788 C18.57,24.158 17.611,24.364 16.606,24.364 L16.606,24.364 Z M9.343,17.1 C9.343,17.023 9.347,16.947 9.349,16.871 C9.478,16.874 13.066,16.955 16.805,15.836 C17.013,16.243 17.212,16.658 17.394,17.071 C17.298,17.097 17.203,17.126 17.108,17.158 C13.189,18.424 11.201,21.95 11.201,21.95 C11.201,21.95 11.204,21.953 11.204,21.954 C10.047,20.667 9.343,18.966 9.343,17.1 L9.343,17.1 Z M13.507,10.533 C13.604,10.662 14.947,12.483 16.204,14.717 C12.717,15.644 9.69,15.607 9.499,15.604 C9.97,13.354 11.481,11.489 13.507,10.533 L13.507,10.533 Z M14.866,10.049 C14.866,10.05 14.865,10.051 14.865,10.051 C14.865,10.051 14.856,10.053 14.843,10.055 C14.851,10.053 14.858,10.052 14.866,10.049 L14.866,10.049 Z M21.402,11.651 C21.384,11.678 20.35,13.253 17.608,14.28 C16.367,11.999 15.003,10.187 14.894,10.043 C15.443,9.91 16.016,9.838 16.606,9.838 C18.444,9.838 20.123,10.524 21.402,11.651 L21.402,11.651 Z M23.866,17.028 C23.761,17.005 21.303,16.476 18.808,16.79 C18.756,16.666 18.705,16.541 18.651,16.416 C18.5,16.06 18.337,15.708 18.168,15.362 C21.036,14.191 22.2,12.508 22.214,12.488 C23.232,13.725 23.849,15.305 23.866,17.028 L23.866,17.028 Z M24.937,15.389 C24.825,14.843 24.657,14.304 24.44,13.79 C24.228,13.286 23.963,12.8 23.656,12.346 C23.353,11.896 23.003,11.472 22.619,11.088 C22.234,10.703 21.811,10.354 21.36,10.05 C20.906,9.742 20.42,9.479 19.916,9.265 C19.402,9.049 18.864,8.881 18.318,8.77 C17.758,8.655 17.182,8.596 16.606,8.596 C16.029,8.596 15.453,8.655 14.893,8.77 C14.347,8.881 13.809,9.049 13.295,9.265 C12.791,9.479 12.305,9.742 11.85,10.05 C11.4,10.354 10.977,10.703 10.592,11.088 C10.208,11.472 9.859,11.896 9.555,12.346 C9.248,12.8 8.983,13.286 8.771,13.79 C8.553,14.304 8.386,14.843 8.274,15.389 C8.16,15.948 8.102,16.524 8.102,17.1 C8.102,17.678 8.16,18.254 8.274,18.814 C8.386,19.36 8.553,19.898 8.771,20.411 C8.983,20.915 9.248,21.403 9.555,21.857 C9.859,22.307 10.208,22.729 10.592,23.115 C10.977,23.499 11.4,23.847 11.85,24.152 C12.305,24.459 12.791,24.723 13.295,24.936 C13.809,25.154 14.347,25.32 14.893,25.431 C15.453,25.547 16.029,25.605 16.606,25.605 C17.182,25.605 17.758,25.547 18.318,25.431 C18.864,25.32 19.402,25.154 19.916,24.936 C20.42,24.723 20.906,24.459 21.36,24.152 C21.811,23.847 22.234,23.499 22.619,23.115 C23.003,22.729 23.353,22.307 23.656,21.857 C23.963,21.403 24.228,20.915 24.44,20.411 C24.657,19.898 24.825,19.36 24.937,18.814 C25.051,18.254 25.109,17.678 25.109,17.1 C25.109,16.524 25.051,15.948 24.937,15.389 L24.937,15.389 Z" id="Fill-219" fill="#2C2B2B"></path>
            </g>
        </g>
    </g>
</svg>