<?xml version="1.0" encoding="UTF-8" standalone="no"?>
<svg width="34px" height="34px" viewBox="0 0 34 34" version="1.1" xmlns="http://www.w3.org/2000/svg" xmlns:xlink="http://www.w3.org/1999/xlink" xmlns:sketch="http://www.bohemiancoding.com/sketch/ns">
    <!-- Generator: Sketch 3.0.4 (8054) - http://www.bohemiancoding.com/sketch -->
    <title>Fill-175</title>
    <desc>Created with Sketch.</desc>
    <defs></defs>
    <g id="Page-1" stroke="none" stroke-width="1" fill="none" fill-rule="evenodd" sketch:type="MSPage">
        <g id="Flat_Social_Icons" sketch:type="MSLayerGroup" transform="translate(-25.000000, -156.000000)">
            <g id="Group-20"></g>
            <g id="email-dark" transform="translate(1.000000, 125.000000)">
                <g id="Page-1">
                    <g id="Flat_Social_Icons">
                        <g id="Group-20"></g>
                        <g id="email" transform="translate(24.000000, 31.000000)" sketch:type="MSShapeGroup">
                            <path d="M17.008,34.015 C26.401,34.015 34.017,26.4 34.017,17.007 C34.017,7.614 26.401,0 17.008,0 C7.614,0 0,7.614 0,17.007 C0,26.4 7.614,34.015 17.008,34.015" id="Fill-175" fill="#2E2E33"></path>
                            <g id="black218" transform="translate(9.000000, 11.000000)" fill="#FFFFFF">
                                <g id="Group">
                                    <path d="M14.0509714,12.0612 C14.3977714,12.0612 14.6982857,11.9466857 14.9537143,11.7205714 L10.5826286,7.34931429 C10.4777143,7.4244 10.3760571,7.49742857 10.2800571,7.56685714 C9.95297143,7.80788571 9.68742857,7.99594286 9.4836,8.13068571 C9.27977143,8.26577143 9.00857143,8.40342857 8.67,8.544 C8.33125714,8.68474286 8.01565714,8.75485714 7.72285714,8.75485714 L7.71428571,8.75485714 L7.70571429,8.75485714 C7.41291429,8.75485714 7.09731429,8.68474286 6.75857143,8.544 C6.41982857,8.40342857 6.14862857,8.26577143 5.94497143,8.13068571 C5.74114286,7.99594286 5.47577143,7.80788571 5.14851429,7.56685714 C5.05731429,7.5 4.95617143,7.42662857 4.8468,7.34811429 L0.474857143,11.7205714 C0.730285714,11.9466857 1.03097143,12.0612 1.37777143,12.0612 L14.0509714,12.0612 L14.0509714,12.0612 Z" id="Shape"></path>
                                    <path d="M0.869828571,4.59668571 C0.542742857,4.37862857 0.252685714,4.12885714 0.000171428571,3.84754286 L0.000171428571,10.4981143 L3.85285714,6.64542857 C3.08211429,6.10731429 2.08902857,5.4252 0.869828571,4.59668571 L0.869828571,4.59668571 L0.869828571,4.59668571 Z" id="Shape"></path>
                                    <path d="M14.5676571,4.59668571 C13.3949143,5.3904 12.3982286,6.07371429 11.5774286,6.64697143 L15.4285714,10.4982857 L15.4285714,3.84754286 C15.1817143,4.1232 14.8947429,4.3728 14.5676571,4.59668571 L14.5676571,4.59668571 L14.5676571,4.59668571 Z" id="Shape"></path>
                                    <path d="M14.0509714,-0.0612 L1.37777143,-0.0612 C0.935657143,-0.0612 0.595714286,0.0881142857 0.3576,0.3864 C0.119314286,0.684857143 0.000342857143,1.05805714 0.000342857143,1.50565714 C0.000342857143,1.8672 0.158228571,2.25891429 0.473828571,2.68097143 C0.789428571,3.10285714 1.12525714,3.43422857 1.48114286,3.67525714 C1.67622857,3.81308571 2.26457143,4.22211429 3.24617143,4.90217143 C3.77605714,5.26937143 4.23685714,5.58942857 4.63285714,5.8656 C4.9704,6.1008 5.26148571,6.30445714 5.50182857,6.47348571 C5.52942857,6.49285714 5.5728,6.52388571 5.6304,6.56502857 C5.69245714,6.6096 5.77097143,6.66617143 5.86782857,6.73611429 C6.05434286,6.87102857 6.20931429,6.98005714 6.33274286,7.06337143 C6.456,7.14668571 6.60531429,7.23977143 6.78051429,7.34314286 C6.95554286,7.44634286 7.12062857,7.524 7.2756,7.5756 C7.43057143,7.6272 7.57405714,7.65308571 7.70605714,7.65308571 L7.71462857,7.65308571 L7.7232,7.65308571 C7.8552,7.65308571 7.99868571,7.6272 8.15365714,7.5756 C8.30862857,7.524 8.47354286,7.44651429 8.64874286,7.34314286 C8.82377143,7.23977143 8.97291429,7.14651429 9.09651429,7.06337143 C9.21994286,6.98005714 9.37491429,6.87102857 9.56142857,6.73611429 C9.65811429,6.66617143 9.73662857,6.6096 9.79868571,6.5652 C9.85628571,6.52388571 9.89965714,6.49302857 9.92742857,6.47348571 C10.1146286,6.3432 10.4064,6.1404 10.7986286,5.868 C11.5124571,5.37205714 12.5636571,4.64211429 13.9566857,3.67525714 C14.3756571,3.38262857 14.7257143,3.02948571 15.0070286,2.61634286 C15.2878286,2.2032 15.4285714,1.76982857 15.4285714,1.3164 C15.4285714,0.937542857 15.2921143,0.613371429 15.0197143,0.343371429 C14.7469714,0.0737142857 14.424,-0.0612 14.0509714,-0.0612 L14.0509714,-0.0612 L14.0509714,-0.0612 Z" id="Shape"></path>
                                </g>
                            </g>
                        </g>
                    </g>
                </g>
            </g>
        </g>
    </g>
</svg>