<?xml version="1.0" encoding="UTF-8" standalone="no"?>
<svg width="34px" height="34px" viewBox="0 0 34 34" version="1.1" xmlns="http://www.w3.org/2000/svg" xmlns:xlink="http://www.w3.org/1999/xlink" xmlns:sketch="http://www.bohemiancoding.com/sketch/ns">
    <!-- Generator: Sketch 3.0.4 (8054) - http://www.bohemiancoding.com/sketch -->
    <title>Fill 196</title>
    <desc>Created with Sketch.</desc>
    <defs></defs>
    <g id="Page-1" stroke="none" stroke-width="1" fill="none" fill-rule="evenodd" sketch:type="MSPage">
        <g id="Flat_Social_Icons" sketch:type="MSLayerGroup" transform="translate(-53.000000, -220.000000)">
            <g id="Group-20"></g>
            <g id="dribbble-2" transform="translate(53.000000, 220.000000)" sketch:type="MSShapeGroup">
                <path d="M17.008,34.016 C26.402,34.016 34.016,26.4 34.016,17.007 C34.016,7.615 26.402,0 17.008,0 C7.613,0 0,7.615 0,17.007 C0,26.4 7.613,34.016 17.008,34.016" id="Fill-196" fill="#FFFFFF"></path>
                <g id="github10" transform="translate(8.000000, 9.000000)" fill="#2E2E33">
                    <path d="M15.859612,4.08427165 C15.0995797,2.82782472 14.0685439,1.83309933 12.7663689,1.09983339 C11.4639221,0.366567443 10.0420709,0 8.49986416,0 C6.9577933,0 5.5355345,0.366698501 4.23335944,1.09983339 C2.93104854,1.83309933 1.90001279,2.82782472 1.1399805,4.08427165 C0.37994822,5.34071859 0,6.71275812 0,8.20039024 C0,9.98722633 0.54037684,11.5941206 1.6214022,13.0213353 C2.70229172,14.44855 4.09860483,15.4361983 5.81034152,15.9842802 C6.00962076,16.0199278 6.15714446,15.9948958 6.25304844,15.9097085 C6.34895242,15.8242591 6.39690442,15.7174474 6.39690442,15.5894044 C6.39690442,15.568042 6.39500264,15.3759119 6.39133492,15.012883 C6.38753136,14.6497231 6.38576543,14.3329574 6.38576543,14.0627171 L6.13119876,14.1051797 C5.96886836,14.1338813 5.76415547,14.1460696 5.51692423,14.1425311 C5.26982884,14.1392546 5.0133604,14.1142227 4.74779058,14.0678284 C4.48208492,14.0216962 4.23498953,13.9150155 4.00623272,13.7477863 C3.77761175,13.580426 3.61528135,13.3614292 3.51937737,13.0910578 L3.40866668,12.8453253 C3.33490483,12.6817657 3.21876049,12.5001202 3.06009781,12.300913 C2.90143512,12.1015748 2.7410065,11.9663236 2.57867611,11.8951594 L2.50124654,11.8418191 C2.44962684,11.8061715 2.40167484,11.7633157 2.35739057,11.7135139 C2.31310629,11.6637121 2.27996101,11.6139103 2.25781887,11.5639775 C2.23567673,11.5141757 2.25401531,11.4731547 2.31310629,11.4410456 C2.37219727,11.4089366 2.47910441,11.3932097 2.63409937,11.3932097 L2.85538491,11.4251877 C3.0029086,11.4536272 3.18547936,11.5389455 3.40323302,11.6814049 C3.62085085,11.8237331 3.79975389,12.0087861 3.93994215,12.2364328 C4.10974382,12.5284286 4.31432087,12.7508329 4.55421667,12.9039079 C4.79397664,13.0569829 5.03563837,13.1333894 5.27906605,13.1333894 C5.52249373,13.1333894 5.73277612,13.1155656 5.90991322,13.080049 C6.08691448,13.0445325 6.2529126,12.9910611 6.40790756,12.9198969 C6.47433398,12.4428481 6.6551388,12.0762807 6.95018618,11.8200635 C6.5296214,11.7773388 6.15157496,11.7131207 5.81577517,11.6278024 C5.48011123,11.542353 5.1333083,11.4035632 4.77550221,11.211171 C4.41756029,11.0190409 4.12061113,10.7805165 3.88451888,10.4958599 C3.64842664,10.2110723 3.45471689,9.8372967 3.30352548,9.37466421 C3.15233407,8.91190066 3.07667045,8.37810403 3.07667045,7.77301218 C3.07667045,6.91157214 3.36818596,6.17843725 3.95108114,5.57334541 C3.67804005,4.92565992 3.7038499,4.19960213 4.0285107,3.39517204 C4.24246081,3.33108499 4.55978617,3.37918304 4.98035095,3.53933514 C5.40091573,3.69948723 5.70886804,3.83670429 5.90447957,3.95046208 C6.10009109,4.06421987 6.256852,4.16054704 6.37489812,4.23878828 C7.06116856,4.05373529 7.76944529,3.96120879 8.49986416,3.96120879 C9.23028303,3.96120879 9.9386956,4.05373529 10.6251019,4.23878828 L11.0456667,3.98257114 C11.3332428,3.81167234 11.6728461,3.65505879 12.0636616,3.51273049 C12.4547489,3.3704022 12.7537356,3.33121605 12.9603503,3.3953031 C13.2923465,4.19973319 13.3218241,4.92579098 13.048783,5.57347646 C13.6316782,6.17856831 13.9231937,6.91183425 13.9231937,7.77314324 C13.9231937,8.37823508 13.8473942,8.91373547 13.6963387,9.38003756 C13.5450114,9.84647072 13.3496716,10.2199842 13.1099116,10.5012333 C12.8700158,10.7824824 12.5711649,11.019172 12.2133588,11.2113021 C11.8554169,11.4035632 11.5086139,11.542353 11.17295,11.6278024 C10.8371502,11.7132518 10.4591038,11.7774699 10.038539,11.8201946 C10.4221549,12.1404988 10.6139629,12.645856 10.6139629,13.3363972 L10.6139629,15.5891422 C10.6139629,15.7171853 10.6601489,15.823997 10.7523852,15.9093154 C10.8446215,15.9946337 10.9902434,16.0196657 11.1895226,15.9840181 C12.9013952,15.4359362 14.2977083,14.4482879 15.3785978,13.0209422 C16.4594873,11.5938585 17,9.98696421 17,8.19999707 C16.9995925,6.71262706 16.6193726,5.34071859 15.859612,4.08427165 L15.859612,4.08427165 Z" id="Shape"></path>
                </g>
            </g>
        </g>
    </g>
</svg>