<?xml version="1.0" encoding="UTF-8" standalone="no"?>
<svg width="34px" height="34px" viewBox="0 0 34 34" version="1.1" xmlns="http://www.w3.org/2000/svg" xmlns:xlink="http://www.w3.org/1999/xlink" xmlns:sketch="http://www.bohemiancoding.com/sketch/ns">
    <!-- Generator: Sketch 3.0.4 (8054) - http://www.bohemiancoding.com/sketch -->
    <title>github-light</title>
    <desc>Created with Sketch.</desc>
    <defs></defs>
    <g id="Page-1" stroke="none" stroke-width="1" fill="none" fill-rule="evenodd" sketch:type="MSPage">
        <g id="Flat_Social_Icons" sketch:type="MSLayerGroup" transform="translate(-47.000000, -230.000000)">
            <g id="Group-20"></g>
            <g id="github" transform="translate(47.000000, 230.000000)" sketch:type="MSShapeGroup">
                <path d="M17.008,34.016 C26.402,34.016 34.016,26.401 34.016,17.008 C34.016,7.615 26.402,0 17.008,0 C7.613,0 0,7.615 0,17.008 C0,26.401 7.613,34.016 17.008,34.016" id="Fill-207" fill="#CCD0D1"></path>
                <g transform="translate(8.000000, 9.000000)" id="Shape" fill="#2C2B2B">
                    <path d="M11.412579,15.9110005 C11.3297888,15.9402656 11.2465174,15.9746405 11.1608392,15.9890408 C10.8344921,16.0452483 10.6255915,15.8826645 10.6236661,15.5607484 C10.6193341,14.9629043 10.6193341,14.3659892 10.6294422,13.7681451 C10.6400316,13.080183 10.6236661,12.4015115 10.0811983,11.8347906 C10.4036947,11.7790475 10.6905721,11.7400274 10.9711921,11.677781 C12.8301191,11.265747 13.795683,10.1341633 13.9189055,8.25608731 C13.9814794,7.29962962 13.8048284,6.42260577 13.1468395,5.66961018 C13.099187,5.61665429 13.0972617,5.49634223 13.1194032,5.41923102 C13.2950916,4.79676705 13.2435884,4.18870338 13.0395011,3.58017517 C12.9889606,3.42827538 12.9052078,3.38135832 12.750217,3.39111335 C12.2043798,3.42037845 11.7042697,3.60525954 11.2633642,3.88954905 C10.8383428,4.16501258 10.4426831,4.22493635 9.93775959,4.11345027 C8.825869,3.87143256 7.70675834,3.94204042 6.59727445,4.19009695 C6.47164525,4.21889752 6.30269564,4.18034192 6.18765588,4.11530837 C5.66684825,3.8207993 5.14604063,3.53465169 4.54533091,3.42037845 C4.08083982,3.33304769 4.04040743,3.3553449 3.91718492,3.78874705 C3.76219411,4.33502886 3.7467913,4.88177519 3.90515148,5.4317732 C3.92777436,5.51167156 3.9041888,5.63988056 3.84883494,5.69887528 C2.61805389,7.02416609 3.0637728,9.52842224 3.89311803,10.4876671 C4.53811084,11.2327657 5.39489233,11.568153 6.34601605,11.74235 C6.51207763,11.7725442 6.67717654,11.7953059 6.84323812,11.8227129 C6.7007621,12.1803974 6.57272621,12.5181074 6.4278435,12.850243 C6.39944456,12.9143475 6.30943437,12.9682324 6.23578967,12.9956394 C5.30295679,13.3449625 4.50104782,13.08808 3.96724407,12.2709799 C3.68181068,11.8352551 3.31551253,11.5096228 2.76967533,11.4153242 C2.75234716,11.412537 2.73453766,11.4032465 2.71865351,11.4055692 C2.57184545,11.4427312 2.42648139,11.4817513 2.28015467,11.5198424 C2.36246345,11.6303994 2.42070534,11.7790475 2.53093172,11.8454747 C2.99349746,12.1283706 3.29433366,12.5306496 3.49312622,13.005859 C3.80551453,13.7509576 4.4120003,14.0835578 5.19995047,14.1481268 C5.58453947,14.1787855 5.97297917,14.1527721 6.39414984,14.1527721 C6.39414984,14.6154393 6.41147801,15.1436046 6.38692978,15.6694473 C6.37441499,15.9528078 6.07935485,16.066152 5.72605282,15.9500206 C4.78888789,15.6406468 3.92007295,15.197025 3.16966714,14.573632 C0.460216004,12.3206841 -0.584287276,9.47314372 0.316295967,6.13970983 C1.21399118,2.81788908 3.5537748,0.779551854 7.05213878,0.139900452 C11.8929542,-0.743162233 16.4786605,2.65855688 16.9590358,7.40089615 C17.3378487,11.1398607 15.0582324,14.6382011 11.412579,15.9110005 L11.412579,15.9110005 Z M7.00777143,12 C7.00485714,12.0065882 7.00291429,12.0117647 7,12.0178824 C7.00874286,12.0192941 7.01748571,12.0207059 7.02671429,12.0221176 C7.03351429,12.0230588 7.03934286,12.0343529 7.00777143,12 L7.00777143,12 Z M5,13.105119 C5.07625714,13.1507661 5.14911429,13.2086484 5.23168571,13.2335896 C5.2618,13.2430014 5.31765714,13.1766484 5.41625714,13.1060602 C5.27928571,13.0552367 5.19865714,13.0114719 5.11365714,13.0001778 C5.08062857,12.9959425 5.03788571,13.0684131 5,13.105119 L5,13.105119 Z M5.00230868,13.24 C5.0134801,13.2894118 5.11499439,13.3510588 5.17473725,13.3501176 C5.23253725,13.3491765 5.2888801,13.2748235 5.3466801,13.2324706 C5.29422296,13.1863529 5.24176582,13.1407059 5.08050868,13 C5.04553725,13.0974118 4.98773725,13.1764706 5.00230868,13.24 L5.00230868,13.24 Z M6.19817143,13.0005642 C6.12628571,13.0170348 6.06557143,13.0815054 6,13.1257407 C6.03837143,13.1723289 6.07674286,13.2165642 6.13842857,13.289976 C6.22342857,13.2146819 6.28122857,13.1624466 6.33951429,13.1116231 C6.29094286,13.0716231 6.23411429,12.9925642 6.19817143,13.0005642 L6.19817143,13.0005642 Z M4.00049079,13.1036168 C4.04031936,13.1770286 4.10200507,13.2396168 4.18554793,13.3426756 C4.24140507,13.254205 4.30211936,13.1864403 4.29143365,13.1727933 C4.23849079,13.1054992 4.16660507,13.0504403 4.09569079,13.0000874 C4.09083365,12.9967933 3.99223365,13.0876168 4.00049079,13.1036168 L4.00049079,13.1036168 Z"></path>
                </g>
            </g>
        </g>
    </g>
</svg>