<?xml version="1.0" encoding="UTF-8" standalone="no"?>
<svg width="288px" height="310px" viewBox="0 0 288 310" version="1.1" xmlns="http://www.w3.org/2000/svg" xmlns:xlink="http://www.w3.org/1999/xlink" xmlns:sketch="http://www.bohemiancoding.com/sketch/ns">
    <!-- Generator: Sketch 3.0.4 (8054) - http://www.bohemiancoding.com/sketch -->
    <title>Slice 2</title>
    <desc>Created with Sketch.</desc>
    <defs></defs>
    <g id="Page-1" stroke="none" stroke-width="1" fill="none" fill-rule="evenodd" sketch:type="MSPage">
        <path d="M143.99433,0 L118.93074,46.7528 C116.08674,51.83406 110.99115,51.36276 105.89557,48.52472 L87.75019,39.12749 L101.27421,110.93881 C104.11821,124.05834 94.99339,124.05834 90.49026,118.38568 L58.82305,82.93015 L53.68194,100.93531 C53.08907,103.29977 50.48237,105.7832 46.57169,105.1918 L6.52816,96.77147 L17.04585,135.01472 C19.29741,143.52428 21.05367,147.04753 14.77281,149.29188 L0.5,156.00092 L69.43236,211.99997 C72.16075,214.11734 73.53923,217.92772 72.56791,221.37775 L66.53486,241.17885 C90.26929,238.44262 111.53571,234.32601 135.28217,231.79072 C137.37849,231.5669 140.88799,235.0269 140.87359,237.45657 L137.72882,310 L149.26862,310 L147.45211,237.61215 C147.43761,235.18248 150.62149,231.5669 152.71782,231.79072 C176.46427,234.32602 197.73072,238.44262 221.46514,241.17885 L215.43211,221.37775 C214.46079,217.92772 215.83926,214.11734 218.56765,211.99997 L287.5,156.00092 L273.2272,149.29188 C266.94632,147.04753 268.70259,143.52428 270.95415,135.01472 L281.47187,96.77147 L241.4283,105.1918 C237.51763,105.7832 234.91093,103.29977 234.31804,100.93531 L229.17694,82.93015 L197.50974,118.38568 C193.0066,124.05834 183.88176,124.05834 186.72577,110.93881 L200.24977,39.12749 L182.10443,48.52472 C177.00872,51.36276 171.91326,51.83406 169.06925,46.7528" id="Shape" fill="#FFFFFF" sketch:type="MSShapeGroup"></path>
    </g>
</svg>