<?xml version="1.0" encoding="UTF-8" standalone="no"?>
<svg width="35px" height="35px" viewBox="0 0 35 35" version="1.1" xmlns="http://www.w3.org/2000/svg" xmlns:xlink="http://www.w3.org/1999/xlink" xmlns:sketch="http://www.bohemiancoding.com/sketch/ns">
    <!-- Generator: Sketch 3.0.4 (8054) - http://www.bohemiancoding.com/sketch -->
    <title>twitter</title>
    <desc>Created with Sketch.</desc>
    <defs></defs>
    <g id="Page-1" stroke="none" stroke-width="1" fill="none" fill-rule="evenodd" sketch:type="MSPage">
        <g id="Flat_Social_Icons" sketch:type="MSLayerGroup" transform="translate(-120.000000, -119.000000)">
            <g id="Group-20"></g>
            <g id="twitter" transform="translate(121.000000, 119.000000)" sketch:type="MSShapeGroup">
                <path d="M16.558,34.085 C25.951,34.085 33.565,26.471 33.565,17.077 C33.565,7.685 25.951,0.07 16.558,0.07 C7.164,0.07 -0.451,7.685 -0.451,17.077 C-0.451,26.471 7.164,34.085 16.558,34.085" id="Fill-168" fill="#2E2E33"></path>
                <path d="M25.09,12.622 C24.464,12.9 23.79,13.088 23.083,13.172 C23.805,12.74 24.359,12.055 24.62,11.239 C23.944,11.639 23.197,11.93 22.399,12.086 C21.763,11.407 20.854,10.983 19.848,10.983 C17.919,10.983 16.354,12.548 16.354,14.478 C16.354,14.752 16.384,15.018 16.444,15.274 C13.539,15.128 10.964,13.738 9.239,11.621 C8.938,12.139 8.766,12.74 8.766,13.38 C8.766,14.592 9.383,15.662 10.321,16.289 C9.749,16.272 9.209,16.113 8.737,15.853 L8.737,15.896 C8.737,17.59 9.942,19.003 11.542,19.323 C11.249,19.405 10.94,19.446 10.621,19.446 C10.396,19.446 10.176,19.425 9.963,19.384 C10.408,20.772 11.698,21.783 13.228,21.81 C12.032,22.748 10.524,23.307 8.887,23.307 C8.605,23.307 8.326,23.291 8.053,23.259 C9.6,24.249 11.438,24.828 13.411,24.828 C19.841,24.828 23.356,19.503 23.356,14.884 C23.356,14.732 23.353,14.58 23.347,14.431 C24.03,13.938 24.623,13.323 25.09,12.622" id="Fill-169" fill="#FFFFFF"></path>
            </g>
        </g>
    </g>
</svg>