<?xml version="1.0" encoding="UTF-8"?>
<svg width="130px" height="130px" viewBox="0 0 130 130" version="1.1" xmlns="http://www.w3.org/2000/svg" xmlns:xlink="http://www.w3.org/1999/xlink">
    <title>Group 11</title>
    <defs>
        <polygon id="path-1" points="0 129.177 129.177 129.177 129.177 0 0 0"></polygon>
    </defs>
    <g id="Page-1" stroke="none" stroke-width="1" fill="none" fill-rule="evenodd">
        <g id="Artboard" transform="translate(-193.000000, -102.000000)">
            <g id="Group-11" transform="translate(193.000000, 102.000000)">
                <path d="M105.8054,34.6377 C105.8054,69.2597 77.6384,97.4267 43.0164,97.4267 C26.6674,97.4267 11.7594,91.1457 0.5754,80.8707 L0.5754,81.6417 C5.8434,86.4067 11.8144,90.2177 18.3664,92.9887 C26.1734,96.2907 34.4674,97.9657 43.0164,97.9657 C51.5654,97.9657 59.8584,96.2907 67.6664,92.9887 C75.2074,89.7987 81.9794,85.2327 87.7954,79.4177 C93.6114,73.6017 98.1774,66.8287 101.3674,59.2877 C104.6694,51.4807 106.3444,43.1867 106.3444,34.6377 C106.3444,26.0887 104.6694,17.7957 101.3674,9.9877 C99.9764,6.6987 98.3234,3.5567 96.4194,0.5757 L95.7414,0.5757 C102.1054,10.3937 105.8054,22.0917 105.8054,34.6377 L105.8054,34.6377 Z M30.3904,80.6457 C19.2404,80.6457 8.9264,76.9987 0.5754,70.8387 L0.5754,71.4817 C3.6854,73.7387 7.0374,75.6357 10.6074,77.1447 C16.8734,79.7957 23.5294,81.1397 30.3904,81.1397 C37.2514,81.1397 43.9084,79.7957 50.1744,77.1447 C56.2264,74.5857 61.6614,70.9207 66.3294,66.2527 C70.9974,61.5857 74.6614,56.1497 77.2214,50.0977 C79.8714,43.8317 81.2154,37.1757 81.2154,30.3137 C81.2154,23.4527 79.8714,16.7967 77.2214,10.5307 C75.7244,6.9907 73.8464,3.6637 71.6134,0.5757 L70.9734,0.5757 C77.0994,8.9137 80.7214,19.1987 80.7214,30.3137 C80.7214,58.0667 58.1434,80.6457 30.3904,80.6457 L30.3904,80.6457 Z M128.6014,22.2927 C127.6754,18.6937 126.4814,15.1607 125.0204,11.7067 C123.3764,7.8197 121.4264,4.1037 119.1834,0.5757 L118.4484,0.5757 C123.1664,7.8987 126.6494,16.0887 128.6014,24.8497 L128.6014,22.2927 Z M59.0084,123.2457 C35.9174,123.2457 15.0974,113.3357 0.5754,97.5477 L0.5754,98.4827 C1.1864,99.1347 1.8074,99.7787 2.4414,100.4127 C9.7884,107.7597 18.3434,113.5277 27.8694,117.5567 C37.7324,121.7287 48.2094,123.8437 59.0084,123.8437 C69.8084,123.8437 80.2844,121.7287 90.1474,117.5567 C99.6734,113.5277 108.2284,107.7597 115.5754,100.4127 C120.7054,95.2827 125.0654,89.5627 128.6014,83.3347 L128.6014,82.0427 C115.0784,106.5827 88.9534,123.2457 59.0084,123.2457 L59.0084,123.2457 Z M55.1494,116.4707 C33.6874,116.4707 14.2964,107.4387 0.5754,92.9767 L0.5754,93.8717 C0.8904,94.1977 1.2074,94.5217 1.5294,94.8437 C8.4934,101.8077 16.6024,107.2757 25.6324,111.0947 C34.9814,115.0487 44.9124,117.0537 55.1494,117.0537 C65.3864,117.0537 75.3174,115.0487 84.6654,111.0947 C93.6954,107.2757 101.8054,101.8077 108.7694,94.8437 C115.7334,87.8797 121.2014,79.7697 125.0204,70.7397 C126.4814,67.2867 127.6754,63.7527 128.6014,60.1547 L128.6014,57.5977 C121.1064,91.2417 91.0194,116.4707 55.1494,116.4707 L55.1494,116.4707 Z M7.2394,35.2927 C7.2394,30.3707 4.5564,26.0647 0.5754,23.7597 L0.5754,24.1777 C4.3494,26.4457 6.8794,30.5787 6.8794,35.2927 C6.8794,40.0057 4.3494,44.1397 0.5754,46.4067 L0.5754,46.8257 C4.5564,44.5207 7.2394,40.2137 7.2394,35.2927 L7.2394,35.2927 Z M21.9154,70.9307 C14.1304,70.9307 6.8344,68.8017 0.5754,65.0967 L0.5754,65.6567 C2.1174,66.5527 3.7184,67.3547 5.3764,68.0557 C10.6144,70.2717 16.1794,71.3947 21.9154,71.3947 C27.6514,71.3947 33.2154,70.2717 38.4544,68.0557 C43.5144,65.9157 48.0584,62.8517 51.9604,58.9497 C55.8624,55.0477 58.9264,50.5037 61.0664,45.4437 C63.2824,40.2057 64.4054,34.6407 64.4054,28.9047 C64.4054,23.1687 63.2824,17.6037 61.0664,12.3657 C59.2324,8.0297 56.7184,4.0747 53.5824,0.5757 L52.9314,0.5757 C59.7664,8.0527 63.9414,18.0007 63.9414,28.9047 C63.9414,52.0777 45.0884,70.9307 21.9154,70.9307 L21.9154,70.9307 Z M1.4664,10.2187 C13.1904,10.2187 22.7294,19.7567 22.7294,31.4817 C22.7294,43.2057 13.1904,52.7437 1.4664,52.7437 C1.1684,52.7437 0.8714,52.7367 0.5754,52.7237 L0.5754,53.1137 C0.8714,53.1257 1.1684,53.1337 1.4664,53.1337 C13.4054,53.1337 23.1194,43.4207 23.1194,31.4817 C23.1194,19.5417 13.4054,9.8287 1.4664,9.8287 C1.1684,9.8287 0.8714,9.8367 0.5754,9.8487 L0.5754,10.2397 C0.8714,10.2267 1.1684,10.2187 1.4664,10.2187 L1.4664,10.2187 Z M0.8594,0.5757 C0.7644,0.6047 0.6704,0.6337 0.5754,0.6627 L0.5754,1.1137 C1.2104,0.9137 1.8544,0.7337 2.5074,0.5757 L0.8594,0.5757 Z M55.5824,28.6907 C55.5824,49.5737 38.5924,66.5637 17.7084,66.5637 C11.5464,66.5637 5.7234,65.0827 0.5754,62.4597 L0.5754,62.9907 C5.8294,65.6207 11.6614,67.0127 17.7084,67.0127 C27.9454,67.0127 37.5684,63.0267 44.8074,55.7887 C52.0454,48.5507 56.0314,38.9267 56.0314,28.6907 C56.0314,18.4537 52.0454,8.8307 44.8074,1.5917 C44.4604,1.2447 44.1054,0.9077 43.7484,0.5757 L43.0574,0.5757 C50.7434,7.5127 55.5824,17.5467 55.5824,28.6907 L55.5824,28.6907 Z M79.0884,128.6017 L82.0434,128.6017 C86.6314,127.5247 91.1284,126.0587 95.5094,124.2057 C105.5324,119.9667 114.5334,113.8977 122.2624,106.1687 C124.5184,103.9117 126.6324,101.5467 128.6014,99.0807 L128.6014,98.0237 C116.4984,113.5037 99.0654,124.6247 79.0884,128.6017 L79.0884,128.6017 Z M47.2654,28.8247 C47.2654,47.4187 32.1384,62.5457 13.5444,62.5457 C8.9514,62.5457 4.5694,61.6217 0.5754,59.9507 L0.5754,60.4407 C4.6364,62.1057 9.0234,62.9797 13.5444,62.9797 C22.6674,62.9797 31.2444,59.4267 37.6954,52.9757 C44.1464,46.5247 47.6994,37.9477 47.6994,28.8247 C47.6994,19.7017 44.1464,11.1247 37.6954,4.6737 C36.1624,3.1407 34.5084,1.7727 32.7564,0.5757 L31.9374,0.5757 C41.1584,6.6007 47.2654,17.0117 47.2654,28.8247 L47.2654,28.8247 Z M72.3264,29.4517 C72.3264,54.9147 51.6104,75.6297 26.1474,75.6297 C16.6974,75.6297 7.9014,72.7757 0.5754,67.8847 L0.5754,68.4847 C2.9134,70.0187 5.3874,71.3427 7.9864,72.4427 C13.7384,74.8757 19.8494,76.1087 26.1474,76.1087 C32.4464,76.1087 38.5574,74.8757 44.3094,72.4427 C49.8654,70.0927 54.8554,66.7277 59.1394,62.4437 C63.4244,58.1587 66.7884,53.1687 69.1384,47.6127 C71.5714,41.8607 72.8054,35.7497 72.8054,29.4517 C72.8054,23.1527 71.5714,17.0427 69.1384,11.2897 C67.5064,7.4297 65.3824,3.8437 62.8014,0.5757 L62.1604,0.5757 C68.5184,8.4897 72.3264,18.5337 72.3264,29.4517 L72.3264,29.4517 Z M15.1174,33.1717 C15.1174,24.5337 8.8204,17.3397 0.5754,15.9357 L0.5754,16.3157 C8.6124,17.7147 14.7424,24.7407 14.7424,33.1717 C14.7424,41.6037 8.6124,48.6287 0.5754,50.0277 L0.5754,50.4087 C8.8204,49.0047 15.1174,41.8107 15.1174,33.1717 L15.1174,33.1717 Z M51.1864,109.8987 C31.4004,109.8987 13.4764,101.7727 0.5754,88.6837 L0.5754,89.5387 C7.1434,96.0907 14.7854,101.2367 23.2924,104.8347 C32.1274,108.5717 41.5124,110.4667 51.1864,110.4667 C60.8614,110.4667 70.2454,108.5717 79.0814,104.8347 C87.6144,101.2257 95.2784,96.0587 101.8594,89.4777 C108.4414,82.8957 113.6084,75.2317 117.2174,66.6987 C120.9544,57.8637 122.8494,48.4787 122.8494,38.8037 C122.8494,29.1297 120.9544,19.7447 117.2174,10.9097 C115.6924,7.3047 113.8884,3.8547 111.8184,0.5757 L111.1054,0.5757 C118.1774,11.6217 122.2814,24.7427 122.2814,38.8037 C122.2814,78.0057 90.3884,109.8987 51.1864,109.8987 L51.1864,109.8987 Z M34.6264,85.9607 C21.7534,85.9607 9.9094,81.4717 0.5754,73.9777 L0.5754,74.6657 C4.4314,77.7137 8.6644,80.2207 13.2214,82.1477 C20.0014,85.0157 27.2034,86.4697 34.6264,86.4697 C42.0504,86.4697 49.2524,85.0157 56.0324,82.1477 C62.5814,79.3787 68.4624,75.4127 73.5124,70.3627 C78.5634,65.3127 82.5284,59.4317 85.2974,52.8827 C88.1654,46.1027 89.6194,38.9007 89.6194,31.4767 C89.6194,24.0527 88.1654,16.8517 85.2974,10.0717 C83.8824,6.7247 82.1534,3.5527 80.1284,0.5757 L79.4784,0.5757 C85.5504,9.3627 89.1104,20.0117 89.1104,31.4767 C89.1104,61.5197 64.6694,85.9607 34.6264,85.9607 L34.6264,85.9607 Z M38.8404,91.5607 C24.2314,91.5607 10.8534,86.1897 0.5754,77.3187 L0.5754,78.0467 C5.1514,81.9367 10.2584,85.0857 15.8124,87.4347 C23.1064,90.5197 30.8544,92.0837 38.8404,92.0837 C46.8274,92.0837 54.5754,90.5197 61.8684,87.4347 C68.9134,84.4547 75.2404,80.1897 80.6734,74.7557 C86.1064,69.3227 90.3724,62.9967 93.3524,55.9517 C96.4374,48.6577 98.0014,40.9097 98.0014,32.9237 C98.0014,24.9367 96.4374,17.1897 93.3524,9.8957 C91.9704,6.6287 90.3114,3.5167 88.3884,0.5757 L87.7264,0.5757 C93.8854,9.8537 97.4774,20.9767 97.4774,32.9237 C97.4774,65.2557 71.1734,91.5607 38.8404,91.5607 L38.8404,91.5607 Z M30.8224,30.2037 C30.8224,44.2177 19.4214,55.6197 5.4074,55.6197 C3.7554,55.6197 2.1404,55.4597 0.5754,55.1577 L0.5754,55.5737 C2.1524,55.8707 3.7674,56.0237 5.4074,56.0237 C12.3034,56.0237 18.7874,53.3387 23.6644,48.4617 C28.5414,43.5847 31.2274,37.1007 31.2274,30.2037 C31.2274,23.3067 28.5414,16.8227 23.6644,11.9467 C18.7874,7.0697 12.3034,4.3837 5.4074,4.3837 C3.7674,4.3837 2.1524,4.5367 0.5754,4.8337 L0.5754,5.2507 C2.1404,4.9477 3.7554,4.7887 5.4074,4.7887 C19.4214,4.7887 30.8224,16.1897 30.8224,30.2037 L30.8224,30.2037 Z M39.0064,29.3237 C39.0064,45.6277 25.7424,58.8917 9.4384,58.8917 C6.3524,58.8917 3.3744,58.4157 0.5754,57.5347 L0.5754,57.9857 C3.4094,58.8577 6.3894,59.3117 9.4384,59.3117 C17.4484,59.3117 24.9794,56.1917 30.6434,50.5277 C36.3064,44.8647 39.4264,37.3337 39.4264,29.3237 C39.4264,21.3137 36.3064,13.7837 30.6434,8.1197 C27.0634,4.5397 22.7374,1.9777 18.0164,0.5757 L16.3604,0.5757 C29.3364,3.7007 39.0064,15.4037 39.0064,29.3237 L39.0064,29.3237 Z M104.4974,128.6017 L105.9804,128.6017 C114.3234,124.4137 121.9124,118.9487 128.6014,112.3047 L128.6014,111.3587 C121.6354,118.3827 113.4924,124.2387 104.4974,128.6017 L104.4974,128.6017 Z M47.1364,103.5447 C29.0584,103.5447 12.6324,96.3417 0.5754,84.6547 L0.5754,85.4677 C6.5074,91.1267 13.3254,95.6057 20.8644,98.7947 C29.1864,102.3137 38.0254,104.0987 47.1364,104.0987 C56.2484,104.0987 65.0874,102.3137 73.4094,98.7947 C81.4464,95.3947 88.6644,90.5287 94.8634,84.3297 C101.0614,78.1307 105.9284,70.9127 109.3274,62.8757 C112.8474,54.5547 114.6324,45.7147 114.6324,36.6037 C114.6324,27.4917 112.8474,18.6527 109.3274,10.3307 C107.8884,6.9267 106.1844,3.6707 104.2284,0.5757 L103.5354,0.5757 C110.2074,10.9837 114.0784,23.3497 114.0784,36.6037 C114.0784,73.5147 84.0484,103.5447 47.1364,103.5447 L47.1364,103.5447 Z M121.5874,128.6017 L122.7974,128.6017 C124.7854,127.2087 126.7214,125.7377 128.6014,124.1867 L128.6014,123.2897 C126.3514,125.1677 124.0104,126.9417 121.5874,128.6017 L121.5874,128.6017 Z M0.5754,107.5827 L0.5754,108.5927 C1.6464,109.7857 2.7514,110.9537 3.8924,112.0947 C10.6324,118.8337 18.2944,124.3697 26.7264,128.6017 L28.2104,128.6017 C17.6484,123.4787 8.2624,116.2977 0.5754,107.5827 L0.5754,107.5827 Z M0.5754,102.4117 L0.5754,103.3857 C1.4394,104.3307 2.3254,105.2587 3.2344,106.1687 C10.9644,113.8977 19.9654,119.9667 29.9874,124.2057 C34.3684,126.0587 38.8654,127.5247 43.4544,128.6017 L46.4014,128.6017 C28.3694,125.0107 12.4114,115.5967 0.5754,102.4117 L0.5754,102.4117 Z M128.6014,4.3567 C127.8734,3.0747 127.1104,1.8137 126.3134,0.5757 L125.5544,0.5757 C126.6304,2.2257 127.6474,3.9177 128.6014,5.6487 L128.6014,4.3567 Z M0.5754,126.1427 C1.3104,126.9737 2.0594,127.7927 2.8234,128.6017 L3.8144,128.6017 C2.7064,127.4437 1.6274,126.2587 0.5754,125.0487 L0.5754,126.1427 Z M0.5754,118.8967 L0.5754,119.9647 C1.9124,121.4777 3.2984,122.9547 4.7364,124.3917 C6.1914,125.8467 7.6864,127.2497 9.2184,128.6017 L10.2874,128.6017 C6.8244,125.6007 3.5794,122.3567 0.5754,118.8967 L0.5754,118.8967 Z M18.0254,128.6017 L16.8144,128.6017 C12.4044,125.5137 8.2574,122.0327 4.3984,118.1737 C3.0794,116.8557 1.8054,115.5037 0.5754,114.1187 L0.5754,113.0757 C5.7054,118.9567 11.5694,124.1797 18.0254,128.6017 L18.0254,128.6017 Z" id="Fill-1" fill="#E6E6E6"></path>
                <path d="M76.1014,128.9863 L18.4564,128.9863 C18.4564,113.0683 31.3614,100.1643 47.2794,100.1643 C63.1974,100.1643 76.1014,113.0683 76.1014,128.9863" id="Fill-3" fill="#E6E6E6"></path>
                <path d="M118.2354,34.4832 C118.2354,41.5832 112.4804,47.3382 105.3804,47.3382 C98.2804,47.3382 92.5254,41.5832 92.5254,34.4832 C92.5254,27.3832 98.2804,21.6282 105.3804,21.6282 C112.4804,21.6282 118.2354,27.3832 118.2354,34.4832" id="Fill-5" fill="#E6E6E6"></path>
                <path d="M31.7659,42.6779 C31.7659,44.8769 29.9829,46.6599 27.7839,46.6599 C25.5849,46.6599 23.8029,44.8769 23.8029,42.6779 C23.8029,40.4789 25.5849,38.6959 27.7839,38.6959 C29.9829,38.6959 31.7659,40.4789 31.7659,42.6779" id="Fill-7" fill="#E6E6E6"></path>
                <mask id="mask-2" fill="white">
                    <use xlink:href="#path-1"></use>
                </mask>
                <g id="Clip-10"></g>
                <polygon id="Stroke-9" stroke="#E6E6E6" stroke-width="1.151" mask="url(#mask-2)" points="0.576 128.601 128.601 128.601 128.601 0.576 0.576 0.576"></polygon>
            </g>
        </g>
    </g>
</svg>