<?xml version="1.0" encoding="UTF-8"?>
<svg width="189px" height="62px" viewBox="0 0 189 62" version="1.1" xmlns="http://www.w3.org/2000/svg" xmlns:xlink="http://www.w3.org/1999/xlink">
    <title>Group 6 Copy 3</title>
    <g id="Page-1" stroke="none" stroke-width="1" fill="none" fill-rule="evenodd">
        <g id="Artboard" transform="translate(-530.000000, -435.000000)" fill="#FFFFFF" fill-rule="nonzero">
            <g id="Group-6-Copy-3" transform="translate(530.000000, 435.000000)">
                <path d="M44.5628611,61.999997 L12.7902773,59.2750643 L12.6934432,59.2934739 C12.649266,59.2987826 12.6047761,59.3014554 12.5602068,59.3014554 L12.5462229,59.3010131 L12.5462229,59.3010131 L12.5125855,59.3014554 L12.5121214,59.3014554 L12.4712773,59.2990643 L12.3890661,59.2944873 C12.3802522,59.2934884 12.3714638,59.2923837 12.3627025,59.2911744 C11.9185017,59.2315413 11.55345,58.9085743 11.4375699,58.4776308 L0.0751311458,28.8743354 C0.0214160511,28.7351053 -0.00316332532,28.5887543 0.000343837032,28.4437387 C-0.00550972862,28.288168 0.0207906377,28.1285535 0.0839787821,27.9749582 C0.156298579,27.7991661 0.268452717,27.651885 0.405659874,27.5392793 L17.2434857,3.74765372 C17.3379614,3.47496363 17.5358025,3.24542302 17.8007252,3.11438804 C17.9608505,3.03518754 18.1343385,2.99748572 18.3066751,3.0002011 L18.3446988,3.00071524 C18.4075165,2.99855821 18.4710715,3.00174105 18.5347624,3.01057912 L50.211515,5.72298075 C50.2816996,5.70791699 50.3535458,5.69970779 50.4260644,5.69870948 C50.8923566,5.67368411 51.34257,5.94875787 51.5200453,6.41118912 L62.9255629,36.1290452 C62.9758742,36.2601125 63.0003916,36.397444 62.9999953,36.5339984 L62.9995837,36.5686011 C62.9999324,36.581384 63.0000625,36.5941848 62.9999723,36.6069979 L62.9999623,36.6257913 C62.9972247,36.9591567 62.8456472,37.2848523 62.5689696,37.4987553 L45.5594521,61.5329548 C45.3514401,61.826766 45.0150355,62.000831 44.6568345,61.999997 L44.5628611,61.999997 L44.5628611,61.999997 Z M36.4802773,53.4410643 L19.5322773,57.6160643 L41.9222773,59.5330643 L36.4802773,53.4410643 Z M57.6972773,40.5360643 L38.5662773,52.4430643 L44.5402773,59.1340643 L57.6972773,40.5360643 Z M11.2372773,34.3920643 L13.4932773,56.8130643 L34.4862773,51.6420643 L11.2372773,34.3920643 Z M41.2822773,20.9590643 L38.1452773,50.0900643 L60.0102773,36.4810643 L41.2822773,20.9590643 Z M3.02827732,30.3930643 L10.5732773,50.0500643 L8.83427732,32.7920643 L3.02827732,30.3930643 Z M39.1032773,20.5090643 L12.1342773,32.2930643 L35.9342773,49.9460643 L39.1032773,20.5090643 Z M50.1122773,8.92206432 L41.9452773,18.6240643 L59.3852773,33.0780643 L50.1122773,8.92206432 Z M15.3582773,10.2460643 L2.85527732,27.9170643 L9.20127732,30.5410643 L15.3582773,10.2460643 Z M18.9992773,5.91906432 L11.6782773,30.0610643 L38.0322773,18.5490643 L18.9992773,5.91906432 Z M22.5232773,5.58906432 L40.1642773,17.2960643 L48.1732773,7.78506432 L22.5232773,5.58906432 Z" id="Combined-Shape"></path>
                <path d="M85.0652835,26.057971 C86.0110191,26.057971 86.8917355,25.9220678 87.7074325,25.6502613 C88.5231294,25.3784548 89.2146986,25.006198 89.78214,24.5334911 L88.8955129,21.7681554 C88.0679942,22.5244865 87.1104368,22.9026521 86.0228408,22.9026521 C85.2189655,22.9026521 84.5865048,22.6958428 84.1254587,22.2822242 C83.6644126,21.8686056 83.4338895,21.2363601 83.4338895,20.3854875 L83.4338895,10.9549837 L89.6402797,10.9549837 L89.6402797,7.9769299 L83.4338895,7.9769299 L83.4338895,2.86400223 L79.6391253,4.5369447 L79.6391253,7.9769299 L77.1760635,7.9769299 L75,10.9549837 L79.6391253,10.9549837 L79.6391253,21.0236419 C79.6627686,22.7490223 80.1651907,24.0194223 81.1463914,24.8348418 C82.1275922,25.6502613 83.4338895,26.057971 85.0652835,26.057971 Z M99.2769998,26.057971 C102.27971,26.057971 104.383972,24.9825627 105.589785,22.831746 L105.731646,25.7034408 L109.100829,25.7034408 L109.100829,7.9769299 L105.306064,7.9769299 L105.306064,17.5492458 C105.306064,19.3218969 104.839107,20.6632029 103.905194,21.5731638 C102.97128,22.4831247 101.783199,22.9381051 100.340952,22.9381051 C99.1351394,22.9381051 98.2248688,22.6131191 97.6101407,21.963147 C96.9954125,21.3131749 96.6880484,20.2082224 96.6880484,18.6482895 L96.6880484,7.9769299 L92.8932842,7.9769299 L92.8932842,19.6409741 C92.8932842,21.8154261 93.4784581,23.4285386 94.648806,24.4803115 C95.8191538,25.5320845 97.3618851,26.057971 99.2769998,26.057971 Z M118.489293,25.7034408 L118.489293,16.30839 C118.489293,14.4175622 118.962161,13.0171678 119.907897,12.1072069 C120.853632,11.197246 121.988515,10.7422656 123.312545,10.7422656 C125.842388,10.7422656 127.107309,12.3021986 127.107309,15.4220645 L127.107309,25.7034408 L130.902074,25.7034408 L130.902074,14.2166617 C130.902074,12.0894804 130.281434,10.4586414 129.040156,9.32414473 C127.798878,8.18964803 126.197039,7.62239968 124.234637,7.62239968 C122.910607,7.62239968 121.728438,7.89420618 120.688129,8.43781919 C119.647819,8.98143219 118.832122,9.80866936 118.241038,10.9195307 L118.063712,7.9769299 L114.694529,7.9769299 L114.694529,25.7034408 L118.489293,25.7034408 Z M143.269605,26.057971 C144.617279,26.057971 145.817181,25.7388938 146.869312,25.1007394 C147.921442,24.462585 148.707585,23.6117125 149.22774,22.5481219 L149.44053,25.7034408 L152.774248,25.7034408 L152.774248,0 L148.979484,0 L148.979484,10.8486247 C148.45933,9.85594006 147.702741,9.07006474 146.709719,8.49099872 C145.716696,7.9119327 144.569992,7.62239968 143.269605,7.62239968 C140.834336,7.62239968 138.91331,8.44372802 137.506529,10.0863847 C136.099747,11.7290414 135.396356,13.9921259 135.396356,16.8756384 C135.396356,19.7591508 136.099747,22.0104177 137.506529,23.629439 C138.91331,25.2484604 140.834336,26.057971 143.269605,26.057971 Z M144.120767,23.0090111 C142.583947,23.0090111 141.384045,22.4653981 140.521061,21.3781721 C139.658077,20.2909461 139.226585,18.7782839 139.226585,16.8401853 C139.226585,14.9020868 139.658077,13.3953334 140.521061,12.3199251 C141.384045,11.2445167 142.583947,10.7068126 144.120767,10.7068126 C145.610301,10.7068126 146.792471,11.2326991 147.667276,12.284472 C148.542081,13.336245 148.979484,14.7839101 148.979484,16.6274672 L148.979484,17.0529035 C148.979484,18.8964606 148.542081,20.3500345 147.667276,21.4136252 C146.792471,22.4772158 145.610301,23.0090111 144.120767,23.0090111 Z M162.162713,25.7034408 L162.162713,16.30839 C162.162713,15.1738933 162.381414,14.2048441 162.818817,13.4012422 C163.25622,12.5976404 163.811839,11.994939 164.485676,11.5931381 C165.159513,11.1913372 165.874725,10.9904368 166.631314,10.9904368 C167.577049,10.9904368 168.321816,11.1440665 168.865614,11.451326 L169.468521,7.9769299 C168.995653,7.74057642 168.34546,7.62239968 167.517941,7.62239968 C164.775308,7.62239968 162.90748,8.80416708 161.914457,11.1677019 L161.595272,7.9769299 L158.367949,7.9769299 L158.367949,25.7034408 L162.162713,25.7034408 Z M186.552909,26.057971 C187.380428,26.057971 188.113373,25.9161589 188.751744,25.6325348 L189,23.0799172 C188.645349,23.1744586 188.207946,23.2217293 187.687792,23.2217293 C187.214924,23.2217293 186.878006,23.1153702 186.677037,22.9026521 C186.476068,22.6899339 186.375584,22.3590391 186.375584,21.9099675 L186.375584,13.8975845 C186.375584,11.8413093 185.701747,10.2813763 184.354074,9.21778566 C183.0064,8.15419501 181.185859,7.62239968 178.89245,7.62239968 C176.977336,7.62239968 175.363674,8.03601827 174.051466,8.86325545 C172.739258,9.69049262 171.870363,10.8131716 171.444782,12.2312925 L174.388384,13.7912255 C175.097686,11.6640442 176.622685,10.6004535 178.96338,10.6004535 C180.098263,10.6004535 180.98489,10.9136219 181.623262,11.5399586 C182.261634,12.1662953 182.580819,13.0230767 182.580819,14.1103027 L182.580819,15.0675343 L178.076753,15.8475007 C175.783344,16.2493017 174.057377,16.9288179 172.898851,17.8860495 C171.740325,18.8432811 171.161061,20.0191396 171.161061,21.4136252 C171.161061,22.9026521 171.693038,24.0489664 172.75699,24.8525683 C173.820943,25.6561701 175.215903,26.057971 176.941871,26.057971 C178.2659,26.057971 179.459892,25.8275264 180.523844,25.3666371 C181.587797,24.9057478 182.391672,24.2616846 182.93547,23.4344474 C183.124617,24.3798613 183.520644,25.0534687 184.123551,25.4552696 C184.726457,25.8570706 185.536243,26.057971 186.552909,26.057971 Z M177.757568,23.1862762 C176.906405,23.1862762 176.250301,23.01492 175.789255,22.6722074 C175.328209,22.3294949 175.097686,21.8272437 175.097686,21.165454 C175.097686,20.4563936 175.393228,19.8891452 175.984313,19.463709 C176.575398,19.0382727 177.485669,18.7073778 178.715125,18.4710244 L182.580819,17.6910579 L182.580819,19.8182392 C182.580819,20.8345591 182.09613,21.6499786 181.126751,22.2644977 C180.157372,22.8790167 179.034311,23.1862762 177.757568,23.1862762 Z M85.2071439,62 C86.5548171,62 87.7547192,61.6809228 88.8068501,61.0427684 C89.858981,60.404614 90.6451238,59.5537415 91.1652784,58.4901508 L91.3780689,61.6454698 L94.7117871,61.6454698 L94.7117871,35.942029 L90.9170228,35.942029 L90.9170228,46.7906537 C90.3968682,45.797969 89.6402797,45.0120937 88.6472572,44.4330277 C87.6542348,43.8539617 86.5075304,43.5644287 85.2071439,43.5644287 C82.7718746,43.5644287 80.850849,44.385757 79.4440673,46.0284137 C78.0372855,47.6710704 77.3338946,49.9341549 77.3338946,52.8176674 C77.3338946,55.7011798 78.0372855,57.9524467 79.4440673,59.571468 C80.850849,61.1904893 82.7718746,62 85.2071439,62 Z M86.0583059,58.9510401 C84.5214855,58.9510401 83.3215834,58.4074271 82.4585996,57.3202011 C81.5956159,56.2329751 81.164124,54.7203129 81.164124,52.7822143 C81.164124,50.8441158 81.5956159,49.3373624 82.4585996,48.2619541 C83.3215834,47.1865457 84.5214855,46.6488416 86.0583059,46.6488416 C87.5478396,46.6488416 88.7300091,47.1747281 89.6048146,48.226501 C90.4796201,49.278274 90.9170228,50.7259391 90.9170228,52.5694962 L90.9170228,52.9949325 C90.9170228,54.8384896 90.4796201,56.2920635 89.6048146,57.3556541 C88.7300091,58.4192448 87.5478396,58.9510401 86.0583059,58.9510401 Z M114.491522,62 C115.319041,62 116.051986,61.8581879 116.690357,61.5745637 L116.938613,59.0219462 C116.583962,59.1164876 116.146559,59.1637583 115.626405,59.1637583 C115.153537,59.1637583 114.816619,59.0573992 114.61565,58.8446811 C114.414681,58.6319629 114.314196,58.3010681 114.314196,57.8519965 L114.314196,49.8396135 C114.314196,47.7833383 113.64036,46.2234053 112.292687,45.1598147 C110.945013,44.096224 109.124472,43.5644287 106.831063,43.5644287 C104.915949,43.5644287 103.302287,43.9780473 101.990079,44.8052844 C100.677871,45.6325216 99.808976,46.7552006 99.383395,48.1733215 L102.326997,49.7332545 C103.036299,47.6060732 104.561298,46.5424825 106.901993,46.5424825 C108.036876,46.5424825 108.923503,46.8556509 109.561875,47.4819876 C110.200246,48.1083243 110.519432,48.9651057 110.519432,50.0523317 L110.519432,51.0095632 L106.015366,51.7895297 C103.721957,52.1913306 101.99599,52.8708469 100.837464,53.8280785 C99.6789374,54.7853101 99.0996743,55.9611686 99.0996743,57.3556541 C99.0996743,58.8446811 99.6316506,59.9909954 100.695603,60.7945973 C101.759556,61.5981991 103.154516,62 104.880483,62 C106.204513,62 107.398505,61.7695554 108.462457,61.3086661 C109.52641,60.8477768 110.330285,60.2037136 110.874083,59.3764764 C111.06323,60.3218903 111.459257,60.9954977 112.062163,61.3972986 C112.66507,61.7990995 113.474856,62 114.491522,62 Z M105.69618,59.1283052 C104.845018,59.1283052 104.188914,58.956949 103.727868,58.6142364 C103.266822,58.2715239 103.036299,57.7692727 103.036299,57.107483 C103.036299,56.3984226 103.331841,55.8311742 103.922926,55.4057379 C104.514011,54.9803017 105.424281,54.6494068 106.653738,54.4130533 L110.519432,53.6330869 L110.519432,55.7602682 C110.519432,56.7765881 110.034743,57.5920076 109.065364,58.2065267 C108.095985,58.8210457 106.972924,59.1283052 105.69618,59.1283052 Z M127.923006,61.6454698 L132.178817,48.2442275 L136.647418,61.6454698 L140.796833,61.6454698 L146.719502,43.9189589 L142.605552,43.9189589 L138.562532,58.1001676 L134.164861,43.9189589 L130.405562,43.9189589 L125.972426,58.1001676 L121.964872,43.9189589 L117.850922,43.9189589 L123.773591,61.6454698 L127.923006,61.6454698 Z M154.157387,61.6454698 L154.157387,52.250419 C154.157387,50.3595912 154.630255,48.9591968 155.57599,48.0492359 C156.521726,47.139275 157.656609,46.6842946 158.980639,46.6842946 C161.510481,46.6842946 162.775403,48.2442275 162.775403,51.3640935 L162.775403,61.6454698 L166.570167,61.6454698 L166.570167,50.1586907 C166.570167,48.0315094 165.949528,46.4006704 164.70825,45.2661737 C163.466972,44.131677 161.865132,43.5644287 159.902731,43.5644287 C158.578701,43.5644287 157.396531,43.8362352 156.356222,44.3798482 C155.315913,44.9234612 154.500216,45.7506983 153.909131,46.8615597 L153.731806,43.9189589 L150.362623,43.9189589 L150.362623,61.6454698 L154.157387,61.6454698 Z" id="tundradawn"></path>
            </g>
        </g>
    </g>
</svg>