<svg height="16" viewBox="0 0 238 16" width="238" xmlns="http://www.w3.org/2000/svg" xmlns:xlink="http://www.w3.org/1999/xlink"><radialGradient id="a" cx="50%" cy="0%" gradientTransform="matrix(0 .701513 -1 0 .5 -.350757)" r="142.549086%"><stop offset="0" stop-color="#f75b5e"/><stop offset="1" stop-color="#c31578"/></radialGradient><g fill="none" fill-rule="nonzero"><g fill="url(#a)" transform="translate(112.241975 .587654)"><path d="m9.49947154 2.67282649 2.15661246-2.40738137 8.3955066 7.52097463-8.3955066 7.52097465-2.15661246-2.4073814 5.70814076-5.11359325z"/><path d="m.0970024 2.67282649 2.15661248-2.40738137 8.39550652 7.52097463-8.39550652 7.52097465-2.15661248-2.4073814 5.70814081-5.11359325z"/></g><g fill="#fff"><path d="m2.79253333 15.5728395v-5.89240987h2.8483605c1.2466107 0 2.26854156-.21380823 3.06579259-.64142469s1.38431768-.99293992 1.76119998-1.69597037.5653235-1.47491441.5653235-2.31565185c0-.88422387-.1956889-1.6814749-.5870667-2.39175309s-.98569217-1.26835391-1.7829432-1.67422716-1.80468642-.60880988-3.02230617-.60880988h-5.63149136v15.22024691zm2.67441482-8.1537037h-2.67441482v-4.80524938h2.67441482c.97119671 0 1.67060329.21380823 2.09821975.64142469s.64142469 1.018307.64142469 1.77207161c0 .73926913-.21380823 1.32271193-.64142469 1.75032839s-1.12702304.64142469-2.09821975.64142469zm12.08099755 8.1537037v-6.00112592h2.3047802l2.8266173 6.00112592h3.1962519l-3.1527655-6.37076049c1.0291786-.34789136 1.7865671-.90596708 2.2721655-1.67422716.4855983-.76826008.7283975-1.61624527.7283975-2.54395555 0-.85523293-.1956889-1.63436461-.5870667-2.33739507-.3913778-.70303045-.9820683-1.26110617-1.7720716-1.67422716-.7900033-.41312098-1.7938148-.61968148-3.0114345-.61968148h-5.588005v15.22024691zm2.6309284-8.04498765h-2.6309284v-4.8487358h2.6091852c.9567012 0 1.64886.2174321 2.0764765.6522963.4276165.43486419.6414247 1.01468312.6414247 1.73945679 0 .73926913-.2174321 1.33358353-.6522963 1.78294321-.4348642.44935967-1.1161514.6740395-2.0438617.6740395zm16.8210173 8.30590615c1.5075292 0 2.833865-.3333959 3.9790074-1.0001876 1.1451424-.6667918 2.036614-1.5908782 2.6744148-2.7722593s.9567012-2.54757941.9567012-4.09859505-.3189004-2.91721399-.9567012-4.09859506-1.5292724-2.10546749-2.6744148-2.77225926-2.4714782-1.00018766-3.9790074-1.00018766c-1.5220247 0-2.8519844.33339589-3.9898791 1.00018766-1.1378946.66679177-2.0293662 1.59087819-2.6744148 2.77225926-.6450485 1.18138107-.9675728 2.54757942-.9675728 4.09859506s.3225243 2.91721395.9675728 4.09859505c.6450486 1.1813811 1.5365202 2.1054675 2.6744148 2.7722593 1.1378947.6667917 2.4678544 1.0001876 3.9898791 1.0001876zm0-2.5004691c-1.4495474 0-2.6091852-.4783506-3.4789136-1.4350519-.8697284-.9567012-1.3045926-2.26854153-1.3045926-3.93552095s.4348642-2.97881975 1.3045926-3.93552099c.8697284-.95670123 2.0293662-1.43505185 3.4789136-1.43505185 1.4495473 0 2.6055613.47835062 3.4680419 1.43505185.8624807.95670124 1.293721 2.26854157 1.293721 3.93552099s-.4312403 2.97881975-1.293721 3.93552095c-.8624806.9567013-2.0184946 1.4350519-3.4680419 1.4350519zm15.6033975 2.5004691c1.4205564 0 2.5475794-.4022494 3.3810691-1.2067481.8334897-.8044988 1.2502346-1.953265 1.2502346-3.4462988v-10.82811851h-2.7831309v10.82811851c0 .6522963-.1522024 1.1777572-.4566074 1.5763827-.3044049.3986255-.7900033.5979383-1.456795.5979383-.7102782 0-1.2248675-.2101844-1.5437679-.6305531-.3189005-.4203687-.4855984-.9856922-.5000939-1.6959704h-2.7831308c0 1.5365202.4457358 2.7215251 1.3372074 3.5550149.8914716.8334897 2.0764765 1.2502345 3.5550148 1.2502345zm19.0823111-.2609185v-2.2395506h-7.153516v-4.39212841h6.5012197v-2.17432098h-6.5012197v-4.1746963h7.153516v-2.23955062h-9.9366469v15.22024691zm11.0808099.2609185c1.8264296 0 3.3230872-.4421119 4.4899728-1.3263358 1.1668856-.8842238 1.8952831-2.1090913 2.1851926-3.6746024h-3.0657926c-.1884411.7827555-.5906905 1.3951893-1.2067481 1.8373012s-1.431428.6631679-2.4461111.6631679c-1.4060609 0-2.5077169-.4747268-3.3049679-1.4241803-.7972511-.9494535-1.1958766-2.25766992-1.1958766-3.92464934s.3986255-2.97881975 1.1958766-3.93552099c.797251-.95670123 1.898907-1.43505185 3.3049679-1.43505185 1.0146831 0 1.8300535.23555144 2.4461111.70665432s1.018307 1.11977531 1.2067481 1.94601728h3.0657926c-.2899095-1.63798847-1.018307-2.90996625-2.1851926-3.81593333s-2.6635432-1.35895062-4.4899728-1.35895062c-1.5365202 0-2.8556083.33339589-3.9572642 1.00018766-1.101656.66679177-1.9496412 1.59450206-2.5439556 2.78313086-.5943144 1.18862881-.8914716 2.55845103-.8914716 4.10946667s.2971572 2.91721404.8914716 4.09859504c.5943144 1.1813811 1.4422996 2.1018436 2.5439556 2.7613877 1.1016559.659544 2.420744.989316 3.9572642.989316zm16.8210173-.2609185v-12.98069629h4.4573578v-2.23955062h-11.6761035v2.23955062h4.4356148v12.98069629z"/><path d="m145.067758 15.833758c1.159638 0 2.138082-.2065605 2.935333-.6196815.797251-.4131209 1.398814-.9603251 1.804687-1.6416123s.60881-1.4205564.60881-2.2178074c0-.8987194-.188441-1.63436462-.565324-2.20693581-.376882-.5725712-.876976-1.03280247-1.500281-1.38069383-.623306-.34789136-1.311841-.6522963-2.065605-.91321481-.710278-.23192758-1.340831-.44935968-1.891659-.6522963-.550828-.20293663-.985693-.45298354-1.304593-.75014074s-.478351-.69940659-.478351-1.20674815c0-.5943144.206561-1.04729794.619682-1.35895062.413121-.31165267.924086-.46023127 1.532896-.4457358.710278 0 1.26473.20656049 1.663356.61968148.398625.41312099.605186.88784774.619681 1.42418025h2.97882c-.028991-.89871934-.264543-1.67422716-.706654-2.32652346-.442112-.65229629-1.050922-1.15963786-1.82643-1.52202469s-1.670603-.54358025-2.685286-.54358025c-1.000188 0-1.884412.17756955-2.652672.53270865-.76826.35513909-1.373446.85523292-1.815558 1.50028148s-.65592 1.41693251-.641425 2.31565185c0 1.05816955.308029 1.90615473.924087 2.54395555.616057.63780083 1.511153 1.15963787 2.685286 1.56551112.724774.24642304 1.406061.47835061 2.043862.69578271s1.148766.50009383 1.532896.84798517c.38413.3478914.576195.8334897.576195 1.4567951 0 .5943144-.217432 1.0690411-.652296 1.4241802s-1.021931.5327087-1.7612.5327087c-.855233 0-1.525649-.2427992-2.011247-.7283976-.485598-.4855983-.742893-1.0835366-.771884-1.7938148h-2.935333c.014495 1.0291786.268166 1.9025309.761012 2.6200568s1.166886 1.2683539 2.022118 1.652484c.855233.38413 1.840926.576195 2.957077.576195zm12.124484-.2609185v-15.22024691h-2.783131v15.22024691zm11.167783.2609185c1.145142 0 2.087348-.1956889 2.826617-.5870666.739269-.3913778 1.355327-.9494535 1.848173-1.6742272l.217432 2.0003753h2.565699v-8.3711358h-6.653423v2.08734815h3.848549c-.144955 1.21761975-.568948 2.19968805-1.271978 2.94620495-.703031.7465169-1.743081 1.1197753-3.120151 1.1197753-1.406061 0-2.518588-.4602313-3.337583-1.3806938-.818994-.9204626-1.228491-2.2214313-1.228491-3.9029062s.413121-3.00418683 1.239363-3.9681358 2.000375-1.44592346 3.5224-1.44592346c.956701 0 1.739457.19931276 2.348267.59793827.60881.39862552 1.029178.95307737 1.261106 1.66335556h3.109279c-.347891-1.50752922-1.108904-2.68891029-2.283037-3.54414321s-2.652672-1.28284939-4.435615-1.28284939c-1.565511 0-2.917214.33701976-4.055109 1.01105926-1.137894.67403951-2.01487 1.60899753-2.630928 2.80487408-.616058 1.19587654-.924086 2.57657037-.924086 4.14208148 0 1.55101564.297157 2.90996621.891471 4.07685181.594315 1.1668856 1.427804 2.0764766 2.500469 2.7287729s2.326524.9784444 3.761576.9784444zm14.494494-.2609185v-10.69765925l7.153516 10.69765925h2.78313v-15.22024691h-2.78313v10.71940251l-7.153516-10.71940251h-2.783131v15.22024691zm16.386153 0 1.239363-3.5224h5.935896l1.21762 3.5224h2.957076l-5.566262-15.22024691h-3.131022l-5.566262 15.22024691zm6.414247-5.69672098h-4.413872l2.196064-6.32727408zm17.973407 5.69672098v-2.174321h-6.740395v-13.04592591h-2.783131v15.22024691zm8.558597.2609185c1.159638 0 2.138083-.2065605 2.935334-.6196815.797251-.4131209 1.398813-.9603251 1.804686-1.6416123s.60881-1.4205564.60881-2.2178074c0-.8987194-.188441-1.63436462-.565323-2.20693581-.376883-.5725712-.876977-1.03280247-1.500282-1.38069383s-1.31184-.6522963-2.065605-.91321481c-.710278-.23192758-1.340831-.44935968-1.891659-.6522963-.550828-.20293663-.985692-.45298354-1.304593-.75014074-.3189-.2971572-.47835-.69940659-.47835-1.20674815 0-.5943144.20656-1.04729794.619681-1.35895062.413121-.31165267.924087-.46023127 1.532897-.4457358.710278 0 1.26473.20656049 1.663355.61968148.398626.41312099.605186.88784774.619682 1.42418025h2.978819c-.028991-.89871934-.264542-1.67422716-.706654-2.32652346-.442112-.65229629-1.050922-1.15963786-1.82643-1.52202469-.775507-.36238683-1.670603-.54358025-2.685286-.54358025-1.000188 0-1.884412.17756955-2.652672.53270865-.76826.35513909-1.373446.85523292-1.815558 1.50028148s-.65592 1.41693251-.641424 2.31565185c0 1.05816955.308028 1.90615473.924086 2.54395555.616058.63780083 1.511153 1.15963787 2.685286 1.56551112.724774.24642304 1.406061.47835061 2.043862.69578271s1.148766.50009383 1.532896.84798517c.384131.3478914.576196.8334897.576196 1.4567951 0 .5943144-.217433 1.0690411-.652297 1.4241802s-1.021931.5327087-1.7612.5327087c-.855233 0-1.525648-.2427992-2.011247-.7283976-.485598-.4855983-.742893-1.0835366-.771884-1.7938148h-2.935333c.014496 1.0291786.268166 1.9025309.761012 2.6200568s1.166886 1.2683539 2.022119 1.652484c.855233.38413 1.840925.576195 2.957076.576195z"/></g></g></svg>